<?xml version="1.0" standalone="no"?>
<!DOCTYPE svg PUBLIC "-//W3C//DTD SVG 20010904//EN"
 "http://www.w3.org/TR/2001/REC-SVG-20010904/DTD/svg10.dtd">
<svg version="1.0" xmlns="http://www.w3.org/2000/svg"
 width="850.000000pt" height="848.000000pt" viewBox="0 0 850.000000 848.000000"
 preserveAspectRatio="xMidYMid meet">

<g transform="translate(0.000000,848.000000) scale(0.100000,-0.100000)"
fill="#000000" stroke="none">
<path d="M6490 7968 c-19 -5 -46 -18 -60 -28 -16 -11 -90 -29 -200 -49 -828
-149 -1665 -423 -2383 -783 -268 -133 -564 -302 -752 -428 l-70 -47 -220 -6
c-468 -13 -812 -67 -1160 -183 -804 -268 -1296 -708 -1375 -1229 -38 -251 73
-551 291 -788 160 -174 437 -354 735 -478 l82 -34 23 -74 c60 -197 174 -378
348 -551 238 -237 458 -362 821 -468 382 -111 818 -161 1300 -148 651 18 1180
88 1735 231 558 143 1047 344 1380 567 76 51 186 118 244 148 343 178 567 366
734 613 184 272 287 645 257 924 -25 232 -106 445 -250 662 -72 107 -254 300
-370 392 -379 300 -937 506 -1575 581 -141 17 -669 16 -865 0 -380 -32 -591
-62 -775 -108 -111 -28 -233 -74 -274 -103 -26 -19 -30 -19 -176 -1 -83 11
-198 22 -257 26 -60 4 -108 10 -108 14 0 11 276 162 485 265 671 330 1414 568
2120 678 243 38 232 37 247 20 21 -26 90 -53 136 -53 160 -1 265 175 193 323
-49 101 -152 146 -261 115z m-639 -1448 c606 -48 1112 -215 1497 -497 176
-129 327 -287 425 -444 185 -298 204 -652 51 -975 -43 -92 -155 -260 -222
-334 l-49 -55 5 121 c8 211 -28 377 -128 579 -84 169 -172 287 -335 450 -204
204 -414 357 -720 526 -458 251 -904 409 -1505 534 -138 28 -197 44 -180 48
14 4 147 16 295 27 149 11 288 21 310 23 96 8 433 6 556 -3z m-2296 -220 c749
-50 1378 -159 1955 -337 739 -229 1358 -657 1649 -1142 203 -336 165 -660
-108 -932 -69 -69 -84 -79 -166 -108 -269 -97 -693 -173 -1215 -217 -255 -22
-912 -25 -1160 -6 -187 14 -474 45 -630 68 -484 69 -1430 257 -1785 354 -164
45 -411 124 -435 140 -20 12 -26 202 -10 314 15 109 86 320 158 469 226 472
595 896 1135 1303 l138 104 162 0 c89 0 230 -5 312 -10z m-1056 -67 c-459
-407 -833 -894 -1021 -1325 -76 -175 -138 -445 -138 -598 0 -28 -3 -50 -8 -50
-12 0 -229 127 -309 182 -468 315 -579 680 -322 1059 221 327 821 641 1420
745 91 15 324 40 403 43 l39 1 -64 -57z m-561 -2509 c751 -217 1788 -401 2662
-471 228 -18 966 -25 1045 -9 26 5 36 4 30 -2 -14 -13 -264 -74 -480 -116
-521 -101 -962 -146 -1443 -146 -747 0 -1260 113 -1625 358 -139 93 -276 241
-347 373 -35 66 -36 74 -12 64 9 -3 86 -26 170 -51z"/>
<path d="M4062 5510 c-181 -48 -342 -179 -420 -340 -55 -112 -72 -184 -72
-300 0 -115 17 -189 69 -295 193 -393 721 -485 1039 -180 218 208 270 500 136
773 -75 154 -207 270 -376 329 -101 36 -270 42 -376 13z"/>
<path d="M1190 1941 c-193 -42 -377 -158 -471 -297 -108 -158 -145 -359 -100
-536 80 -313 342 -506 711 -525 188 -9 335 18 503 94 l77 36 0 144 0 143 -32
-14 c-18 -8 -69 -31 -114 -50 -119 -53 -220 -76 -333 -76 -220 0 -378 86 -454
247 -29 62 -32 77 -32 163 1 119 25 187 95 263 95 104 223 152 400 150 139 -1
230 -23 366 -87 l94 -45 0 148 0 148 -68 31 c-124 57 -209 74 -392 78 -133 3
-181 0 -250 -15z"/>
<path d="M7182 1940 c-141 -37 -240 -112 -290 -218 -23 -49 -27 -70 -27 -152
0 -88 3 -101 33 -162 58 -118 143 -178 390 -272 222 -84 272 -123 258 -204
-12 -76 -74 -107 -211 -106 -128 1 -239 39 -402 139 l-43 26 0 -140 0 -141 63
-31 c147 -75 296 -106 461 -96 193 12 332 76 411 192 104 152 79 368 -56 489
-67 60 -130 94 -274 150 -177 69 -234 97 -266 134 -32 37 -36 60 -14 101 49
96 277 93 521 -8 l94 -39 0 128 0 129 -82 31 c-184 71 -409 91 -566 50z"/>
<path d="M2827 1923 c-8 -14 -537 -1330 -537 -1337 0 -3 78 -6 173 -6 l173 0
49 135 50 135 305 0 306 0 54 -132 55 -133 179 -3 c112 -1 177 1 174 7 -1 6
-136 309 -298 675 l-295 666 -192 0 c-105 0 -194 -3 -196 -7z m312 -580 l108
-258 -205 -3 c-113 -1 -207 0 -210 3 -3 2 39 122 93 265 54 143 100 258 103
256 2 -2 52 -121 111 -263z"/>
<path d="M4130 1255 l0 -675 170 0 170 0 0 269 0 268 183 5 c153 4 192 9 246
27 117 41 191 107 245 221 27 58 31 75 31 155 -1 126 -27 188 -114 276 -69 69
-129 100 -235 120 -27 5 -194 9 -372 9 l-324 0 0 -675z m627 405 c58 -25 78
-60 78 -135 0 -121 -53 -154 -242 -155 l-123 0 0 161 0 162 123 -7 c84 -5 135
-13 164 -26z"/>
<path d="M5520 1255 l0 -675 495 0 495 0 0 120 0 120 -330 0 -330 0 0 165 0
165 310 0 310 0 0 125 0 125 -310 0 -310 0 0 145 0 145 325 0 325 0 0 120 0
120 -490 0 -490 0 0 -675z"/>
</g>
</svg>
