<?xml version="1.0" standalone="no"?>
<!DOCTYPE svg PUBLIC "-//W3C//DTD SVG 20010904//EN"
 "http://www.w3.org/TR/2001/REC-SVG-20010904/DTD/svg10.dtd">
<svg version="1.0" xmlns="http://www.w3.org/2000/svg"
 width="850.000000pt" height="848.000000pt" viewBox="0 0 850.000000 848.000000"
 preserveAspectRatio="xMidYMid meet">

<g transform="translate(0.000000,848.000000) scale(0.100000,-0.100000)"
fill="#000000" stroke="none">
<path d="M2038 4944 c-3 -3 -50 -14 -104 -25 -263 -53 -512 -149 -721 -275
-58 -36 -80 -44 -120 -44 -84 0 -212 -20 -296 -46 -285 -90 -430 -277 -348
-447 31 -64 123 -146 204 -182 36 -17 67 -36 67 -43 0 -25 42 -94 81 -137 82
-88 184 -135 349 -160 271 -42 667 17 914 135 171 82 295 168 351 243 81 107
101 235 55 352 -35 89 -141 193 -252 244 -158 75 -314 99 -520 81 -140 -12
-199 -22 -251 -44 -35 -14 -157 -10 -157 5 0 5 55 36 123 69 216 106 506 188
616 176 79 -9 113 28 75 82 -14 20 -53 30 -66 16z m-2 -394 c164 -42 306 -137
358 -242 38 -76 36 -164 -4 -245 -17 -33 -39 -68 -50 -78 -20 -18 -20 -17 -20
41 0 69 -31 143 -87 212 -103 125 -359 258 -585 302 -37 8 -65 16 -62 19 11
11 150 19 260 15 64 -2 143 -12 190 -24z m-538 -56 c367 -54 618 -181 728
-370 39 -66 39 -132 0 -198 -20 -35 -40 -53 -70 -66 -107 -48 -408 -77 -623
-61 -191 15 -475 65 -660 118 l-93 26 0 48 c0 133 123 327 294 466 l81 65 119
-6 c65 -3 166 -13 224 -22z m-553 -58 c-130 -132 -218 -278 -231 -381 -9 -79
-9 -79 -51 -54 -146 87 -194 180 -143 279 41 80 149 155 290 199 77 24 99 28
162 30 l47 1 -74 -74z m19 -617 c259 -63 522 -99 736 -100 154 0 150 -7 -24
-40 -158 -30 -429 -37 -555 -15 -92 16 -194 56 -236 93 -30 27 -75 83 -75 95
0 6 8 7 18 3 9 -3 71 -20 136 -36z"/>
<path d="M1385 4298 c-88 -48 -121 -146 -79 -233 52 -110 222 -120 289 -18 56
85 25 202 -66 248 -33 18 -115 19 -144 3z"/>
<path d="M3168 4760 c-289 -52 -468 -247 -468 -506 0 -192 107 -358 283 -439
96 -44 171 -59 297 -58 121 0 215 20 313 65 l67 31 0 103 c0 57 -2 104 -4 104
-2 0 -36 -15 -77 -34 -122 -56 -178 -69 -293 -64 -82 3 -112 9 -156 29 -123
57 -180 142 -180 268 0 163 99 268 280 301 122 22 234 -2 413 -88 4 -2 7 44 7
102 l0 106 -48 24 c-27 14 -77 32 -112 41 -75 19 -254 28 -322 15z"/>
<path d="M7580 4763 c-177 -29 -285 -138 -284 -284 1 -82 27 -141 89 -198 52
-48 107 -76 245 -127 119 -43 170 -82 170 -131 0 -121 -237 -123 -426 -4 l-64
40 0 -105 0 -105 66 -30 c98 -44 178 -62 284 -63 172 -1 295 56 355 165 26 47
30 64 30 134 0 94 -20 140 -83 197 -56 50 -109 79 -249 133 -90 34 -129 55
-148 77 -28 34 -29 38 -14 71 19 41 53 52 158 51 95 -1 128 -9 274 -69 15 -6
17 1 17 88 l0 94 -78 26 c-123 41 -250 56 -342 40z"/>
<path d="M4140 4263 c-106 -263 -195 -486 -198 -495 -4 -16 7 -18 121 -18
l125 0 30 78 c16 42 32 87 36 100 7 22 8 22 234 22 l227 0 40 -100 40 -100
128 0 c70 0 127 3 127 8 0 4 -97 226 -217 495 l-216 487 -142 0 -143 0 -192
-477z m420 57 c40 -96 74 -181 77 -187 4 -10 -30 -13 -152 -13 -86 0 -155 4
-153 9 2 4 34 92 73 194 38 103 72 183 76 179 4 -4 40 -86 79 -182z"/>
<path d="M5290 4246 l0 -496 120 0 120 0 0 200 0 200 108 0 c182 0 266 24 336
96 58 60 81 117 81 204 -1 89 -30 156 -91 210 -82 71 -98 75 -401 78 l-273 3
0 -495z m466 298 c40 -19 58 -61 51 -115 -10 -76 -55 -99 -194 -99 l-83 0 0
121 0 122 97 -7 c53 -4 111 -14 129 -22z"/>
<path d="M6310 4245 l0 -495 365 0 365 0 0 90 0 90 -245 0 -245 0 0 120 0 120
230 0 230 0 0 90 0 90 -230 0 -230 0 0 110 0 110 240 0 240 0 0 85 0 85 -360
0 -360 0 0 -495z"/>
</g>
</svg>
