<?xml version="1.0" standalone="no"?>
<!DOCTYPE svg PUBLIC "-//W3C//DTD SVG 1.0//EN" "http://www.w3.org/TR/2001/REC-SVG-20010904/DTD/svg10.dtd">
<svg xmlns="http://www.w3.org/2000/svg" xmlns:xlink="http://www.w3.org/1999/xlink" id="body_1" width="2560" height="1920">

<g transform="matrix(3.0407772 0 0 3.0407772 -0 54.943066)">
	<g>
        <path d="M307.56 168.18L534.33 168.18L534.33 368.5L307.56 368.5z" stroke="none" fill="#FFFFFF" fill-rule="nonzero" />
	</g>
	<g>
		<g>
            <path d="M332.63 332.27L332.63 325.69L334.28 325.69C 335.3 325.69 336.07 325.97 336.6 326.53C 337.13 327.09 337.39 327.9 337.39 328.95C 337.39 329.47 337.32 329.94 337.19 330.35C 337.06 330.76 336.86002 331.11002 336.6 331.39C 336.34 331.67 336.02002 331.89 335.64 332.04C 335.26 332.19 334.82 332.27002 334.33002 332.27002L334.33002 332.27002L332.63 332.27002L332.63 332.27zM333.46 331.59L334.21 331.59C 334.97998 331.59 335.56 331.36 335.94 330.9C 336.32 330.44 336.52 329.79 336.52 328.94998C 336.52 328.11 336.33 327.47998 335.94 327.02997C 335.56 326.58997 334.98 326.36996 334.21 326.36996L334.21 326.36996L333.46 326.36996L333.46 331.59z" stroke="none" fill="#1D1D1B" fill-rule="nonzero" />
            <path d="M340.75 332.4C 340.42 332.4 340.12 332.34 339.83 332.22C 339.55 332.1 339.3 331.94 339.09 331.72C 338.88 331.5 338.71 331.24 338.59 330.92C 338.47 330.61002 338.41 330.25 338.41 329.85C 338.41 329.45 338.47 329.09 338.6 328.77002C 338.72 328.45 338.89 328.18002 339.09 327.96002C 339.28998 327.74002 339.53 327.57 339.79 327.45C 340.05002 327.33002 340.32 327.27002 340.6 327.27002C 340.91 327.27002 341.18 327.32 341.43 327.43002C 341.66998 327.54 341.88 327.69003 342.03998 327.89C 342.19998 328.09003 342.33 328.33002 342.41998 328.61002C 342.50998 328.89 342.55 329.21002 342.55 329.55002C 342.55 329.64 342.55 329.72003 342.55 329.81003C 342.55 329.89 342.53998 329.97003 342.52 330.03003L342.52 330.03003L339.22998 330.03003C 339.25998 330.55002 339.43 330.97003 339.71997 331.27002C 340.00995 331.57 340.38998 331.73 340.86 331.73C 341.09 331.73 341.31 331.69 341.50998 331.62003C 341.70996 331.55005 341.9 331.46002 342.08 331.34003L342.08 331.34003L342.37 331.88004C 342.16 332.01004 341.91998 332.13004 341.66 332.23004C 341.38 332.35 341.09 332.4 340.75 332.4zM339.22 329.44L341.83 329.44C 341.83 328.94 341.72 328.57 341.50998 328.31C 341.3 328.05 340.99997 327.91998 340.61996 327.91998C 340.44995 327.91998 340.27997 327.94998 340.11996 328.02C 339.95996 328.09 339.81998 328.19 339.68997 328.31998C 339.55997 328.44998 339.45996 328.61 339.36996 328.8C 339.3 328.99 339.24 329.2 339.22 329.44z" stroke="none" fill="#1D1D1B" fill-rule="nonzero" />
            <path d="M345.28 332.4C 344.76 332.4 344.38 332.24 344.13998 331.91998C 343.9 331.59998 343.78 331.12 343.78 330.49997L343.78 330.49997L343.78 327.40997L344.61 327.40997L344.61 330.38998C 344.61 330.84998 344.68 331.18 344.83 331.38998C 344.97 331.59998 345.21 331.69998 345.53 331.69998C 345.78 331.69998 346.01 331.62997 346.2 331.49997C 346.39 331.36996 346.61002 331.15997 346.84003 330.86996L346.84003 330.86996L346.84003 327.40997L347.66003 327.40997L347.66003 332.28998L346.98004 332.28998L346.91003 331.52997L346.88004 331.52997C 346.65002 331.79996 346.41003 332.00998 346.16003 332.16998C 345.91 332.32 345.62 332.4 345.28 332.4z" stroke="none" fill="#1D1D1B" fill-rule="nonzero" />
            <path d="M350.9 332.4C 350.63998 332.4 350.41998 332.36 350.24 332.28C 350.06 332.2 349.91998 332.09 349.81 331.95C 349.7 331.81003 349.62 331.64 349.57 331.44C 349.52002 331.24 349.5 331.02 349.5 330.78L349.5 330.78L349.5 328.08L348.78 328.08L348.78 327.46L349.54 327.41L349.64 326.04L350.33002 326.04L350.33002 327.41L351.64 327.41L351.64 328.08002L350.33002 328.08002L350.33002 330.79C 350.33002 331.09 350.39 331.32 350.50003 331.49002C 350.61002 331.65002 350.81003 331.74002 351.09003 331.74002C 351.18002 331.74002 351.27002 331.73 351.37003 331.7C 351.47003 331.67 351.56003 331.64 351.64 331.61002L351.64 331.61002L351.80002 332.23C 351.67 332.28 351.52002 332.32 351.36002 332.35C 351.2 332.38 351.05 332.4 350.9 332.4z" stroke="none" fill="#1D1D1B" fill-rule="nonzero" />
            <path d="M354.28 332.4C 353.93 332.4 353.6 332.34 353.29 332.21C 352.98 332.08 352.7 331.91998 352.47 331.72998L352.47 331.72998L352.88 331.18C 353.09 331.35 353.31 331.49 353.54 331.6C 353.76 331.71 354.02002 331.76 354.32 331.76C 354.64 331.76 354.88 331.69 355.04 331.54C 355.2 331.39 355.28 331.21002 355.28 331C 355.28 330.87 355.25 330.76 355.18 330.67C 355.11 330.58002 355.03 330.49002 354.91998 330.42C 354.81998 330.35 354.69998 330.29 354.56 330.23C 354.42 330.17 354.29 330.12003 354.16 330.07C 353.99 330.01 353.81 329.94 353.64 329.86002C 353.47 329.78003 353.31003 329.69 353.17 329.58002C 353.03 329.47003 352.92 329.34003 352.83002 329.19C 352.74002 329.04 352.7 328.87 352.7 328.66C 352.7 328.47 352.74002 328.28 352.82 328.11002C 352.9 327.94 353.01 327.79 353.15 327.67C 353.29 327.55002 353.47 327.45 353.68 327.38C 353.88998 327.31 354.12 327.27002 354.38 327.27002C 354.69 327.27002 354.97 327.32 355.23 327.43002C 355.49002 327.54 355.71002 327.67 355.90002 327.82004L355.90002 327.82004L355.51 328.34003C 355.34 328.21002 355.17 328.11002 354.99002 328.03003C 354.81003 327.95004 354.61002 327.91003 354.40002 327.91003C 354.09003 327.91003 353.87003 327.98004 353.72003 328.12003C 353.58002 328.26004 353.50003 328.42 353.50003 328.61002C 353.50003 328.72 353.53003 328.82 353.59003 328.91C 353.65002 328.99 353.73004 329.07 353.83002 329.13C 353.93002 329.19 354.05002 329.25 354.18002 329.30002C 354.31003 329.35 354.45 329.40002 354.59003 329.46002C 354.76004 329.53003 354.94003 329.60004 355.12003 329.67C 355.30002 329.74002 355.46002 329.84003 355.60004 329.95C 355.74005 330.06 355.86005 330.2 355.95004 330.36002C 356.04004 330.52002 356.09006 330.72 356.09006 330.94C 356.09006 331.14 356.05005 331.33002 355.97006 331.5C 355.89008 331.67 355.78006 331.83 355.63007 331.96C 355.48007 332.09 355.29007 332.19998 355.07007 332.28C 354.82 332.36 354.57 332.4 354.28 332.4z" stroke="none" fill="#1D1D1B" fill-rule="nonzero" />
            <path d="M359.19 332.4C 358.87 332.4 358.57 332.34 358.29 332.22998C 358.01 332.12 357.77002 331.94998 357.56 331.72998C 357.36 331.50998 357.2 331.24 357.08 330.93C 356.95996 330.62 356.9 330.25 356.9 329.85C 356.9 329.44 356.96 329.08002 357.09 328.76C 357.22 328.44 357.38998 328.17 357.6 327.95C 357.81 327.73 358.06 327.56 358.35 327.45C 358.63 327.34003 358.93 327.28 359.25 327.28C 359.57 327.28 359.85 327.34 360.07 327.45C 360.30002 327.56 360.5 327.7 360.67 327.85L360.67 327.85L360.25 328.39C 360.11 328.26 359.96 328.16 359.8 328.08002C 359.63998 328.00003 359.47 327.96002 359.27 327.96002C 359.05 327.96002 358.84998 328.00003 358.66 328.10004C 358.47 328.19003 358.31 328.32004 358.18 328.49005C 358.05 328.66006 357.94 328.86005 357.86 329.09006C 357.78 329.32007 357.74 329.58005 357.74 329.86005C 357.74 330.14005 357.78 330.40005 357.84998 330.62006C 357.91998 330.85007 358.02997 331.04007 358.15997 331.21005C 358.28998 331.37006 358.44998 331.50006 358.63998 331.59006C 358.83 331.68005 359.03 331.73007 359.24997 331.73007C 359.47998 331.73007 359.68997 331.68008 359.87997 331.58008C 360.06998 331.48007 360.23996 331.3701 360.39996 331.23007L360.39996 331.23007L360.75995 331.78006C 360.53995 331.97006 360.28995 332.13007 360.02994 332.24005C 359.76 332.34 359.48 332.4 359.19 332.4z" stroke="none" fill="#1D1D1B" fill-rule="nonzero" />
            <path d="M361.89 332.27L361.89 325.12L362.71002 325.12L362.71002 327.07L362.68002 328.07C 362.91003 327.85 363.16003 327.66 363.41003 327.5C 363.66003 327.34 363.96002 327.26 364.30005 327.26C 364.82004 327.26 365.19006 327.42 365.43005 327.74002C 365.67004 328.06003 365.79004 328.54 365.79004 329.17L365.79004 329.17L365.79004 332.26L364.97003 332.26L364.97003 329.28C 364.97003 328.82 364.90002 328.49 364.75003 328.28C 364.60004 328.08 364.37003 327.97 364.05002 327.97C 363.80002 327.97 363.57 328.03 363.38 328.16C 363.19 328.29 362.96 328.47 362.72 328.72L362.72 328.72L362.72 332.25L361.89 332.25L361.89 332.27z" stroke="none" fill="#1D1D1B" fill-rule="nonzero" />
            <path d="M369.37 332.4C 369.04 332.4 368.74 332.34 368.44998 332.22C 368.16998 332.1 367.91998 331.94 367.71 331.72C 367.5 331.5 367.33 331.24 367.21 330.92C 367.09 330.61002 367.03 330.25 367.03 329.85C 367.03 329.45 367.09 329.09 367.22 328.77002C 367.34 328.45 367.51 328.18002 367.71 327.96002C 367.90997 327.74002 368.15 327.57 368.41 327.45C 368.67 327.33002 368.94 327.27002 369.22 327.27002C 369.53 327.27002 369.8 327.32 370.05 327.43002C 370.28998 327.54 370.5 327.69003 370.65997 327.89C 370.81998 328.09003 370.94998 328.33002 371.03998 328.61002C 371.12997 328.89 371.16998 329.21002 371.16998 329.55002C 371.16998 329.64 371.16998 329.72003 371.16998 329.81003C 371.16998 329.89 371.15997 329.97003 371.13998 330.03003L371.13998 330.03003L367.84998 330.03003C 367.87997 330.55002 368.05 330.97003 368.33997 331.27002C 368.62994 331.57 369.00998 331.73 369.47998 331.73C 369.71 331.73 369.93 331.69 370.12997 331.62003C 370.32996 331.55005 370.52 331.46002 370.69998 331.34003L370.69998 331.34003L370.99 331.88004C 370.78 332.01004 370.53998 332.13004 370.28 332.23004C 370.01 332.35 369.71 332.4 369.37 332.4zM367.84 329.44L370.44998 329.44C 370.44998 328.94 370.34 328.57 370.12997 328.31C 369.91998 328.05 369.61996 327.91998 369.23996 327.91998C 369.06995 327.91998 368.89996 327.94998 368.73996 328.02C 368.57996 328.09 368.43997 328.19 368.30997 328.31998C 368.17996 328.44998 368.07996 328.61 367.98996 328.8C 367.92 328.99 367.87 329.2 367.84 329.44z" stroke="none" fill="#1D1D1B" fill-rule="nonzero" />
            <path d="M372.42 332.27L372.42 327.38998L373.1 327.38998L373.17 328.27L373.2 328.27C 373.37003 327.96 373.57 327.72 373.81 327.53998C 374.05 327.36 374.31 327.27 374.59 327.27C 374.78 327.27 374.96 327.3 375.11 327.37L375.11 327.37L374.94998 328.09C 374.87 328.06 374.8 328.04 374.72998 328.03C 374.65997 328.02 374.58 328.01 374.47998 328.01C 374.27 328.01 374.05997 328.09 373.83 328.26C 373.61 328.43002 373.40997 328.72 373.24 329.13L373.24 329.13L373.24 332.26L372.42 332.26L372.42 332.27z" stroke="none" fill="#1D1D1B" fill-rule="nonzero" />
            <path d="M377.22 332.27L379.45 325.69L380.39 325.69L382.62003 332.27L381.73 332.27L381.11002 330.25998L378.71002 330.25998L378.08002 332.27L377.22 332.27zM379.23 328.59L378.92 329.59L380.90002 329.59L380.59003 328.59C 380.47003 328.22 380.36002 327.86 380.25003 327.49C 380.14005 327.13 380.04004 326.75 379.93002 326.37L379.93002 326.37L379.89 326.37C 379.79 326.75 379.69 327.12 379.58002 327.49C 379.46 327.86 379.35 328.22 379.23 328.59z" stroke="none" fill="#1D1D1B" fill-rule="nonzero" />
            <path d="M383.58 332.27L383.58 325.12L384.38998 325.12L384.38998 329.96L384.41998 329.96L386.49997 327.38998L387.40997 327.38998L385.76996 329.34998L387.62994 332.27L386.72995 332.27L385.29996 329.91998L384.38995 330.97998L384.38995 332.25998L383.58 332.25998L383.58 332.27z" stroke="none" fill="#1D1D1B" fill-rule="nonzero" />
            <path d="M389.67 332.4C 389.26 332.4 388.92 332.28 388.65002 332.04C 388.38004 331.80002 388.24002 331.46002 388.24002 331.02002C 388.24002 330.48 388.48 330.08002 388.95 329.79C 389.43002 329.51 390.18002 329.31 391.23 329.19C 391.23 329.04 391.21002 328.89 391.19 328.74C 391.16 328.59 391.11002 328.46 391.03 328.34998C 390.96 328.24 390.85 328.13998 390.72 328.06998C 390.59 327.99997 390.42 327.96 390.22 327.96C 389.94 327.96 389.67 328.00998 389.43 328.12C 389.18 328.22998 388.96 328.35 388.77 328.47998L388.77 328.47998L388.44998 327.90997C 388.68 327.75998 388.96 327.61996 389.27997 327.47998C 389.60995 327.33997 389.96997 327.27 390.35995 327.27C 390.95996 327.27 391.38995 327.44998 391.64996 327.81998C 391.91995 328.18997 392.04996 328.66998 392.04996 329.27997L392.04996 329.27997L392.04996 332.26996L391.36996 332.26996L391.29996 331.68997L391.26996 331.68997C 391.03995 331.87997 390.77997 332.04996 390.51996 332.18997C 390.25995 332.33 389.97 332.4 389.67 332.4zM389.91 331.73C 390.14 331.73 390.37 331.68002 390.57 331.56C 390.78 331.45 391 331.29 391.23 331.07L391.23 331.07L391.23 329.72C 390.82 329.77 390.48 329.84 390.2 329.91C 389.92 329.98 389.7 330.07 389.53 330.17C 389.36 330.27002 389.24 330.39 389.16 330.52002C 389.08002 330.65002 389.04 330.79 389.04 330.95C 389.04 331.23 389.12 331.43002 389.29 331.55002C 389.46 331.67 389.67 331.73 389.91 331.73z" stroke="none" fill="#1D1D1B" fill-rule="nonzero" />
            <path d="M395.37 332.4C 394.75 332.4 394.26 332.18 393.9 331.74C 393.53998 331.3 393.35 330.66998 393.35 329.84998C 393.35 329.45996 393.41 329.09998 393.53 328.77997C 393.65 328.45996 393.8 328.18997 394 327.96997C 394.19 327.74997 394.42 327.57996 394.67 327.45996C 394.92 327.33997 395.19 327.27997 395.47 327.27997C 395.75 327.27997 396 327.32996 396.2 327.42996C 396.41 327.52997 396.62003 327.66995 396.83002 327.83997L396.83002 327.83997L396.79 327.00998L396.79 325.12997L397.62 325.12997L397.62 332.27997L396.94 332.27997L396.87 331.70996L396.84 331.70996C 396.65 331.89996 396.41998 332.05997 396.16998 332.19995C 395.91998 332.33994 395.66 332.4 395.37 332.4zM395.55 331.7C 395.78 331.7 395.99 331.65002 396.19 331.53C 396.39 331.40997 396.59 331.25 396.79 331.02L396.79 331.02L396.79 328.47C 396.58002 328.28 396.38 328.15 396.19 328.07C 396 327.99002 395.8 327.95 395.6 327.95C 395.41 327.95 395.22 328 395.05002 328.09003C 394.88 328.18002 394.73 328.31003 394.6 328.47003C 394.47 328.63004 394.37 328.83002 394.30002 329.06003C 394.23004 329.29004 394.19003 329.54004 394.19003 329.82004C 394.19003 330.41003 394.31003 330.87003 394.54004 331.20004C 394.79 331.54 395.12 331.7 395.55 331.7z" stroke="none" fill="#1D1D1B" fill-rule="nonzero" />
            <path d="M401.3 332.4C 400.97 332.4 400.66998 332.34 400.37997 332.22C 400.09998 332.1 399.84998 331.94 399.63998 331.72C 399.43 331.5 399.25998 331.24 399.13998 330.92C 399.02 330.61002 398.96 330.25 398.96 329.85C 398.96 329.45 399.02 329.09 399.15 328.77002C 399.27 328.45 399.44 328.18002 399.63998 327.96002C 399.83997 327.74002 400.08 327.57 400.34 327.45C 400.6 327.33002 400.87 327.27002 401.15 327.27002C 401.46 327.27002 401.72998 327.32 401.97998 327.43002C 402.21997 327.54 402.43 327.69003 402.58997 327.89C 402.74997 328.09003 402.87997 328.33002 402.96997 328.61002C 403.05997 328.89 403.09998 329.21002 403.09998 329.55002C 403.09998 329.64 403.09998 329.72003 403.09998 329.81003C 403.09998 329.89 403.08997 329.97003 403.06998 330.03003L403.06998 330.03003L399.77997 330.03003C 399.80997 330.55002 399.97998 330.97003 400.26996 331.27002C 400.55994 331.57 400.93997 331.73 401.40997 331.73C 401.63998 331.73 401.86 331.69 402.05997 331.62003C 402.25995 331.55005 402.44998 331.46002 402.62997 331.34003L402.62997 331.34003L402.91998 331.88004C 402.71 332.01004 402.46997 332.13004 402.21 332.23004C 401.93 332.35 401.63 332.4 401.3 332.4zM399.76 329.44L402.37 329.44C 402.37 328.94 402.26 328.57 402.05 328.31C 401.84 328.05 401.53998 327.91998 401.15997 327.91998C 400.98996 327.91998 400.81998 327.94998 400.65997 328.02C 400.49997 328.09 400.36 328.19 400.22998 328.31998C 400.09998 328.44998 399.99997 328.61 399.90997 328.8C 399.85 328.99 399.79 329.2 399.76 329.44z" stroke="none" fill="#1D1D1B" fill-rule="nonzero" />
            <path d="M404.35 332.27L404.35 327.38998L405.03 327.38998L405.1 328.09L405.13 328.09C 405.34 327.86 405.58002 327.66 405.83002 327.5C 406.08002 327.34 406.35 327.26 406.65002 327.26C 407.03003 327.26 407.32004 327.34 407.53003 327.51C 407.74002 327.68002 407.90002 327.90002 408.00003 328.2C 408.25003 327.92 408.51004 327.69 408.77002 327.52002C 409.03003 327.35 409.31003 327.26 409.61002 327.26C 410.11002 327.26 410.49002 327.42 410.73 327.74002C 410.97 328.06003 411.1 328.54 411.1 329.17L411.1 329.17L411.1 332.26L410.28 332.26L410.28 329.28C 410.28 328.82 410.21 328.49 410.06 328.28C 409.91 328.08 409.68 327.97 409.38 327.97C 409.01 327.97 408.6 328.22 408.16 328.72L408.16 328.72L408.16 332.25L407.34 332.25L407.34 329.27C 407.34 328.81 407.27 328.47998 407.12 328.27C 406.97 328.06998 406.74 327.96 406.43 327.96C 406.06 327.96 405.65 328.21 405.21 328.71L405.21 328.71L405.21 332.24L404.35 332.24L404.35 332.27z" stroke="none" fill="#1D1D1B" fill-rule="nonzero" />
            <path d="M413.14 326.39C 412.98 326.39 412.84003 326.34003 412.73 326.24002C 412.62003 326.14 412.56 326.01 412.56 325.86002C 412.56 325.7 412.62 325.57 412.73 325.47C 412.84 325.37 412.98 325.32 413.14 325.32C 413.30002 325.32 413.44 325.37 413.55002 325.47C 413.66 325.57 413.72003 325.7 413.72003 325.86002C 413.72003 326.01 413.66003 326.14 413.55002 326.24002C 413.44 326.34 413.3 326.39 413.14 326.39zM412.72 332.27L412.72 327.38998L413.54 327.38998L413.54 332.27L412.72 332.27z" stroke="none" fill="#1D1D1B" fill-rule="nonzero" />
            <path d="M416.51 332.4C 416.16 332.4 415.83002 332.34 415.52002 332.21C 415.21002 332.08 414.93002 331.91998 414.7 331.72998L414.7 331.72998L415.11002 331.18C 415.32 331.35 415.54 331.49 415.77002 331.6C 415.99002 331.71 416.25003 331.76 416.55002 331.76C 416.87003 331.76 417.11002 331.69 417.27002 331.54C 417.43002 331.39 417.51 331.21002 417.51 331C 417.51 330.87 417.48 330.76 417.41 330.67C 417.34 330.58002 417.26 330.49002 417.15 330.42C 417.05 330.35 416.93 330.29 416.79 330.23C 416.65002 330.17 416.52002 330.12003 416.39 330.07C 416.22 330.01 416.04 329.94 415.87003 329.86002C 415.7 329.78003 415.54004 329.69 415.40002 329.58002C 415.26 329.47003 415.15002 329.34003 415.06003 329.19C 414.97003 329.04 414.93002 328.87 414.93002 328.66C 414.93002 328.47 414.97003 328.28 415.05002 328.11002C 415.13 327.94 415.24002 327.79 415.38 327.67C 415.52002 327.55002 415.7 327.45 415.91 327.38C 416.12 327.31 416.35 327.27002 416.61002 327.27002C 416.92 327.27002 417.2 327.32 417.46002 327.43002C 417.72003 327.54 417.94003 327.67 418.13004 327.82004L418.13004 327.82004L417.74002 328.34003C 417.57 328.21002 417.40002 328.11002 417.22003 328.03003C 417.04004 327.95004 416.84003 327.91003 416.63004 327.91003C 416.32004 327.91003 416.10004 327.98004 415.95004 328.12003C 415.81003 328.26004 415.73004 328.42 415.73004 328.61002C 415.73004 328.72 415.76004 328.82 415.82004 328.91C 415.88004 328.99 415.96005 329.07 416.06003 329.13C 416.16003 329.19 416.28003 329.25 416.41003 329.30002C 416.54004 329.35 416.68002 329.40002 416.82004 329.46002C 416.99005 329.53003 417.17004 329.60004 417.35004 329.67C 417.53003 329.74002 417.69003 329.84003 417.83005 329.95C 417.97006 330.06 418.09006 330.2 418.18005 330.36002C 418.27005 330.52002 418.32007 330.72 418.32007 330.94C 418.32007 331.14 418.28006 331.33002 418.20007 331.5C 418.1201 331.67 418.01007 331.83 417.86008 331.96C 417.71008 332.09 417.52008 332.19998 417.30008 332.28C 417.06 332.36 416.8 332.4 416.51 332.4z" stroke="none" fill="#1D1D1B" fill-rule="nonzero" />
            <path d="M421.42 332.4C 421.1 332.4 420.80002 332.34 420.52002 332.22998C 420.24002 332.12 420.00003 331.94998 419.79 331.72998C 419.59 331.50998 419.43002 331.24 419.31 330.93C 419.18997 330.62 419.13 330.25 419.13 329.85C 419.13 329.44 419.19 329.08002 419.32 328.76C 419.45 328.44 419.62 328.17 419.83002 327.95C 420.04 327.73 420.29 327.56 420.58002 327.45C 420.86002 327.34003 421.16 327.28 421.48 327.28C 421.80002 327.28 422.08002 327.34 422.30002 327.45C 422.53003 327.56 422.73 327.7 422.90002 327.85L422.90002 327.85L422.48 328.39C 422.34 328.26 422.19 328.16 422.03 328.08002C 421.87 328.00003 421.7 327.96002 421.5 327.96002C 421.28 327.96002 421.08 328.00003 420.89 328.10004C 420.7 328.19003 420.54 328.32004 420.41 328.49005C 420.28 328.66006 420.17 328.86005 420.09 329.09006C 420.01 329.32007 419.97 329.58005 419.97 329.86005C 419.97 330.14005 420.01 330.40005 420.08 330.62006C 420.15 330.85007 420.25998 331.04007 420.38998 331.21005C 420.52 331.37006 420.68 331.50006 420.87 331.59006C 421.06 331.68005 421.26 331.73007 421.47998 331.73007C 421.71 331.73007 421.91998 331.68008 422.11 331.58008C 422.3 331.48007 422.46997 331.3701 422.62997 331.23007L422.62997 331.23007L422.98996 331.78006C 422.76996 331.97006 422.51996 332.13007 422.25995 332.24005C 422 332.34 421.72 332.4 421.42 332.4z" stroke="none" fill="#1D1D1B" fill-rule="nonzero" />
            <path d="M424.12 332.27L424.12 325.12L424.94 325.12L424.94 327.07L424.91 328.07C 425.14 327.85 425.39 327.66 425.64 327.5C 425.89 327.34 426.19 327.26 426.53003 327.26C 427.05002 327.26 427.42004 327.42 427.66003 327.74002C 427.90002 328.06003 428.02002 328.54 428.02002 329.17L428.02002 329.17L428.02002 332.26L427.2 332.26L427.2 329.28C 427.2 328.82 427.13 328.49 426.98 328.28C 426.83002 328.08 426.6 327.97 426.28 327.97C 426.03 327.97 425.8 328.03 425.61 328.16C 425.41998 328.29 425.18997 328.47 424.94998 328.72L424.94998 328.72L424.94998 332.25L424.12 332.25L424.12 332.27z" stroke="none" fill="#1D1D1B" fill-rule="nonzero" />
            <path d="M431.61 332.4C 431.28 332.4 430.97998 332.34 430.68997 332.22C 430.40997 332.1 430.15997 331.94 429.94998 331.72C 429.74 331.5 429.56998 331.24 429.44998 330.92C 429.33 330.61002 429.27 330.25 429.27 329.85C 429.27 329.45 429.33 329.09 429.46 328.77002C 429.58 328.45 429.75 328.18002 429.94998 327.96002C 430.14996 327.74002 430.38998 327.57 430.65 327.45C 430.91 327.33002 431.18 327.27002 431.46 327.27002C 431.77 327.27002 432.03998 327.32 432.28998 327.43002C 432.52997 327.54 432.74 327.69003 432.89996 327.89C 433.05997 328.09003 433.18997 328.33002 433.27997 328.61002C 433.36996 328.89 433.40997 329.21002 433.40997 329.55002C 433.40997 329.64 433.40997 329.72003 433.40997 329.81003C 433.40997 329.89 433.39996 329.97003 433.37997 330.03003L433.37997 330.03003L430.08997 330.03003C 430.11996 330.55002 430.28998 330.97003 430.57996 331.27002C 430.86993 331.57 431.24997 331.73 431.71997 331.73C 431.94998 331.73 432.16998 331.69 432.36996 331.62003C 432.56995 331.55005 432.75998 331.46002 432.93997 331.34003L432.93997 331.34003L433.22998 331.88004C 433.02 332.01004 432.77997 332.13004 432.52 332.23004C 432.24 332.35 431.94 332.4 431.61 332.4zM430.07 329.44L432.68 329.44C 432.68 328.94 432.57 328.57 432.36 328.31C 432.15 328.05 431.84998 327.91998 431.46997 327.91998C 431.29996 327.91998 431.12997 327.94998 430.96997 328.02C 430.80997 328.09 430.66998 328.19 430.53998 328.31998C 430.40997 328.44998 430.30997 328.61 430.21997 328.8C 430.16 328.99 430.1 329.2 430.07 329.44z" stroke="none" fill="#1D1D1B" fill-rule="nonzero" />
            <path d="M434.66 332.27L434.66 327.38998L435.34 327.38998L435.41 328.27L435.44 328.27C 435.61002 327.96 435.81 327.72 436.05 327.53998C 436.28998 327.36 436.55 327.27 436.83 327.27C 437.02 327.27 437.19998 327.3 437.34998 327.37L437.34998 327.37L437.18997 328.09C 437.11 328.06 437.03998 328.04 436.96997 328.03C 436.89996 328.02 436.81998 328.01 436.71997 328.01C 436.50998 328.01 436.29996 328.09 436.06998 328.26C 435.84998 328.43002 435.64996 328.72 435.47998 329.13L435.47998 329.13L435.47998 332.26L434.66 332.26L434.66 332.27z" stroke="none" fill="#1D1D1B" fill-rule="nonzero" />
            <path d="M439.46 332.27L441.69 325.69L442.63 325.69L444.86002 332.27L443.97 332.27L443.35 330.25998L440.95 330.25998L440.32 332.27L439.46 332.27zM441.46 328.59L441.15 329.59L443.13 329.59L442.82 328.59C 442.7 328.22 442.59 327.86 442.48 327.49C 442.37003 327.13 442.27002 326.75 442.16 326.37L442.16 326.37L442.12 326.37C 442.02 326.75 441.91998 327.12 441.81 327.49C 441.7 327.86 441.58 328.22 441.46 328.59z" stroke="none" fill="#1D1D1B" fill-rule="nonzero" />
            <path d="M447.12 332.4C 446.6 332.4 446.22 332.24 445.97998 331.91998C 445.73996 331.59998 445.62 331.12 445.62 330.49997L445.62 330.49997L445.62 327.40997L446.44998 327.40997L446.44998 330.38998C 446.44998 330.84998 446.52 331.18 446.66998 331.38998C 446.81 331.59998 447.05 331.69998 447.37 331.69998C 447.62 331.69998 447.85 331.62997 448.04 331.49997C 448.23 331.36996 448.45 331.15997 448.68002 330.86996L448.68002 330.86996L448.68002 327.40997L449.50003 327.40997L449.50003 332.28998L448.82004 332.28998L448.75003 331.52997L448.72003 331.52997C 448.49002 331.79996 448.25003 332.00998 448.00003 332.16998C 447.76 332.32 447.47 332.4 447.12 332.4z" stroke="none" fill="#1D1D1B" fill-rule="nonzero" />
            <path d="M452.43 332.4C 452.08 332.4 451.75 332.34 451.44 332.21C 451.13 332.08 450.85 331.91998 450.62 331.72998L450.62 331.72998L451.03 331.18C 451.24 331.35 451.46 331.49 451.69 331.6C 451.91 331.71 452.17 331.76 452.47 331.76C 452.79 331.76 453.03 331.69 453.19 331.54C 453.35 331.39 453.43 331.21002 453.43 331C 453.43 330.87 453.4 330.76 453.33 330.67C 453.25998 330.58002 453.18 330.49002 453.06998 330.42C 452.95996 330.35 452.84998 330.29 452.71 330.23C 452.57 330.17 452.44 330.12003 452.31 330.07C 452.13998 330.01 451.96 329.94 451.79 329.86002C 451.62 329.78003 451.46002 329.69 451.32 329.58002C 451.18 329.47003 451.07 329.34003 450.98 329.19C 450.89 329.04 450.85 328.87 450.85 328.66C 450.85 328.47 450.89 328.28 450.97 328.11002C 451.05 327.94 451.16 327.79 451.3 327.67C 451.44 327.55002 451.62 327.45 451.83 327.38C 452.03998 327.31 452.27 327.27002 452.53 327.27002C 452.84 327.27002 453.12 327.32 453.38 327.43002C 453.64 327.54 453.86002 327.67 454.05002 327.82004L454.05002 327.82004L453.66 328.34003C 453.49 328.21002 453.32 328.11002 453.14 328.03003C 452.96002 327.95004 452.76 327.91003 452.55002 327.91003C 452.24002 327.91003 452.02002 327.98004 451.87003 328.12003C 451.72003 328.26 451.65002 328.42 451.65002 328.61002C 451.65002 328.72 451.68002 328.82 451.74002 328.91C 451.80002 328.99 451.88004 329.07 451.98 329.13C 452.08 329.19 452.2 329.25 452.33002 329.30002C 452.46002 329.35 452.6 329.40002 452.74002 329.46002C 452.91003 329.53003 453.09003 329.60004 453.27002 329.67C 453.45 329.74002 453.61002 329.84003 453.75003 329.95C 453.89005 330.06 454.01004 330.2 454.10004 330.36002C 454.19003 330.52002 454.24005 330.72 454.24005 330.94C 454.24005 331.14 454.20004 331.33002 454.12006 331.5C 454.04007 331.66998 453.93005 331.83 453.78006 331.96C 453.63007 332.09 453.44006 332.19998 453.22006 332.28C 452.98 332.36 452.72 332.4 452.43 332.4z" stroke="none" fill="#1D1D1B" fill-rule="nonzero" />
            <path d="M457 332.4C 456.74 332.4 456.52 332.36 456.34 332.28C 456.16 332.2 456.02 332.09 455.91 331.95C 455.80002 331.81003 455.72 331.64 455.67 331.44C 455.62003 331.24 455.6 331.02 455.6 330.78L455.6 330.78L455.6 328.08L454.88 328.08L454.88 327.46L455.64 327.41L455.74002 326.04L456.43002 326.04L456.43002 327.41L457.75003 327.41L457.75003 328.08002L456.43002 328.08002L456.43002 330.79C 456.43002 331.09 456.49002 331.32 456.60004 331.49002C 456.71005 331.66003 456.91003 331.74002 457.19003 331.74002C 457.28003 331.74002 457.37003 331.73 457.47003 331.7C 457.57004 331.67 457.66003 331.64 457.74002 331.61002L457.74002 331.61002L457.90002 332.23C 457.77002 332.28 457.62003 332.32 457.46002 332.35C 457.30002 332.38 457.15 332.4 457 332.4z" stroke="none" fill="#1D1D1B" fill-rule="nonzero" />
            <path d="M460.07 332.4C 459.66 332.4 459.32 332.28 459.05002 332.04C 458.78003 331.80002 458.64 331.46002 458.64 331.02002C 458.64 330.48 458.88 330.08002 459.35 329.79C 459.82 329.51 460.58002 329.31 461.63 329.19C 461.63 329.04 461.61002 328.89 461.59 328.74C 461.56 328.59 461.51 328.46 461.43 328.34998C 461.36 328.24 461.25 328.13998 461.12 328.06998C 460.99 327.99997 460.82 327.96 460.62 327.96C 460.34 327.96 460.08 328.00998 459.83 328.12C 459.58 328.22998 459.36 328.35 459.16998 328.47998L459.16998 328.47998L458.84998 327.90997C 459.08 327.75998 459.34998 327.61996 459.67996 327.47998C 460.00995 327.34 460.36996 327.27 460.75995 327.27C 461.35995 327.27 461.78995 327.44998 462.04996 327.81998C 462.31995 328.18997 462.44995 328.66998 462.44995 329.27997L462.44995 329.27997L462.44995 332.26996L461.76996 332.26996L461.69995 331.68997L461.66995 331.68997C 461.43994 331.87997 461.17996 332.04996 460.91995 332.18997C 460.65994 332.33 460.38 332.4 460.07 332.4zM460.31 331.73C 460.54 331.73 460.77 331.68002 460.97 331.56C 461.18 331.45 461.4 331.29 461.63 331.07L461.63 331.07L461.63 329.72C 461.22 329.77 460.88 329.84 460.6 329.91C 460.32 329.98 460.1 330.07 459.93 330.17C 459.75998 330.27002 459.63998 330.39 459.56 330.52002C 459.48 330.65002 459.44 330.79 459.44 330.95C 459.44 331.23 459.52 331.43002 459.69 331.55002C 459.87 331.67 460.07 331.73 460.31 331.73z" stroke="none" fill="#1D1D1B" fill-rule="nonzero" />
            <path d="M465.43 332.4C 464.91 332.4 464.53 332.24 464.28998 331.91998C 464.05 331.59998 463.93 331.12 463.93 330.49997L463.93 330.49997L463.93 327.40997L464.75998 327.40997L464.75998 330.38998C 464.75998 330.84998 464.83 331.18 464.97998 331.38998C 465.12 331.59998 465.36 331.69998 465.68 331.69998C 465.93 331.69998 466.16 331.62997 466.35 331.49997C 466.54 331.36996 466.76 331.15997 466.99002 330.86996L466.99002 330.86996L466.99002 327.40997L467.81003 327.40997L467.81003 332.28998L467.13004 332.28998L467.06003 331.52997L467.03003 331.52997C 466.80002 331.79996 466.56003 332.00998 466.31003 332.16998C 466.07 332.32 465.77 332.4 465.43 332.4z" stroke="none" fill="#1D1D1B" fill-rule="nonzero" />
            <path d="M470.79 332.4C 470.44 332.4 470.11002 332.34 469.80002 332.21C 469.49002 332.08 469.21002 331.91998 468.98 331.72998L468.98 331.72998L469.39 331.18C 469.6 331.35 469.82 331.49 470.05002 331.6C 470.27002 331.71 470.53003 331.76 470.83002 331.76C 471.15002 331.76 471.39 331.69 471.55002 331.54C 471.71002 331.39 471.79 331.21002 471.79 331C 471.79 330.87 471.76 330.76 471.69 330.67C 471.62 330.58002 471.54 330.49002 471.43 330.42C 471.31998 330.35 471.21 330.29 471.07 330.23C 470.93002 330.17 470.80002 330.12003 470.67 330.07C 470.5 330.01 470.32 329.94 470.15002 329.86002C 469.98 329.78003 469.82004 329.69 469.68002 329.58002C 469.54 329.47003 469.43002 329.34003 469.34003 329.19C 469.25003 329.04 469.21002 328.87 469.21002 328.66C 469.21002 328.47 469.25003 328.28 469.33002 328.11002C 469.41 327.94 469.52002 327.79 469.66 327.67C 469.80002 327.55002 469.98 327.45 470.19 327.38C 470.4 327.31 470.63 327.27002 470.89 327.27002C 471.2 327.27002 471.48 327.32 471.74002 327.43002C 472.00003 327.54 472.22003 327.67 472.41003 327.82004L472.41003 327.82004L472.02002 328.34003C 471.85 328.21002 471.68002 328.11002 471.50003 328.03003C 471.32004 327.95004 471.12003 327.91003 470.91003 327.91003C 470.60004 327.91003 470.38004 327.98004 470.23004 328.12003C 470.08005 328.26 470.01004 328.42 470.01004 328.61002C 470.01004 328.72 470.04004 328.82 470.10004 328.91C 470.16003 328.99 470.24005 329.07 470.34003 329.13C 470.44 329.19 470.56003 329.25 470.69003 329.30002C 470.82004 329.35 470.96002 329.40002 471.10004 329.46002C 471.27005 329.53003 471.45004 329.60004 471.63004 329.67C 471.81003 329.74002 471.97003 329.84003 472.11005 329.95C 472.25006 330.06 472.37006 330.2 472.46005 330.36002C 472.55005 330.52002 472.60007 330.72 472.60007 330.94C 472.60007 331.14 472.56006 331.33002 472.48007 331.5C 472.4001 331.66998 472.29007 331.83 472.14008 331.96C 471.99008 332.09 471.80008 332.19998 471.58008 332.28C 471.33 332.36 471.08 332.4 470.79 332.4z" stroke="none" fill="#1D1D1B" fill-rule="nonzero" />
            <path d="M475.75 332.4C 475.43 332.4 475.13 332.34 474.85 332.22998C 474.57 332.12 474.33002 331.94998 474.12 331.72998C 473.91998 331.50998 473.76 331.24 473.63998 330.93C 473.51996 330.62 473.46 330.25 473.46 329.85C 473.46 329.44 473.52 329.08002 473.65 328.76C 473.78 328.44 473.94998 328.17 474.16 327.95C 474.37 327.73 474.62 327.56 474.91 327.45C 475.19 327.34003 475.49 327.28 475.81 327.28C 476.13 327.28 476.41 327.34 476.63 327.45C 476.86002 327.56 477.06 327.7 477.23 327.85L477.23 327.85L476.81 328.39C 476.66998 328.26 476.52 328.16 476.36 328.08002C 476.19998 328.00003 476.03 327.96002 475.83 327.96002C 475.61 327.96002 475.40997 328.00003 475.22 328.10004C 475.03 328.19003 474.87 328.32004 474.74 328.49005C 474.61 328.66006 474.5 328.86005 474.41998 329.09006C 474.34 329.32007 474.3 329.58005 474.3 329.86005C 474.3 330.14005 474.34 330.40005 474.40997 330.62006C 474.47998 330.85007 474.58 331.04007 474.71997 331.21005C 474.84998 331.37006 475.00998 331.50006 475.19998 331.59006C 475.38998 331.68005 475.59 331.73007 475.80997 331.73007C 476.03998 331.73007 476.24997 331.68008 476.43997 331.58008C 476.62997 331.48007 476.79996 331.3701 476.95996 331.23007L476.95996 331.23007L477.31995 331.78006C 477.09995 331.97006 476.84995 332.13007 476.58994 332.24005C 476.32 332.34 476.04 332.4 475.75 332.4z" stroke="none" fill="#1D1D1B" fill-rule="nonzero" />
            <path d="M478.45 332.27L478.45 325.12L479.27002 325.12L479.27002 327.07L479.24002 328.07C 479.47003 327.85 479.72003 327.66 479.97003 327.5C 480.22003 327.34 480.52002 327.26 480.86005 327.26C 481.37006 327.26 481.75006 327.42 481.99005 327.74002C 482.23004 328.06003 482.35004 328.54 482.35004 329.17L482.35004 329.17L482.35004 332.26L481.53003 332.26L481.53003 329.28C 481.53003 328.82 481.46002 328.49 481.31003 328.28C 481.16003 328.07 480.93002 327.97 480.61002 327.97C 480.36002 327.97 480.13 328.03 479.94 328.16C 479.75 328.29 479.52 328.47 479.28 328.72L479.28 328.72L479.28 332.25L478.45 332.25L478.45 332.27z" stroke="none" fill="#1D1D1B" fill-rule="nonzero" />
            <path d="M485.57 332.4C 484.95 332.4 484.46002 332.18 484.1 331.74C 483.73 331.3 483.55002 330.66998 483.55002 329.84998C 483.55002 329.45996 483.61002 329.09998 483.73 328.77997C 483.85 328.45996 484 328.18997 484.2 327.96997C 484.39 327.74997 484.62003 327.57996 484.87003 327.45996C 485.12003 327.33997 485.39 327.27997 485.67 327.27997C 485.95 327.27997 486.2 327.32996 486.40002 327.42996C 486.61002 327.52997 486.82004 327.66995 487.03003 327.83997L487.03003 327.83997L486.99002 327.00998L486.99002 325.12997L487.82 325.12997L487.82 332.27997L487.14 332.27997L487.07 331.70996L487.04 331.70996C 486.85 331.89996 486.62 332.05997 486.37 332.19995C 486.12 332.33994 485.86 332.4 485.57 332.4zM485.75 331.7C 485.98 331.7 486.19 331.65002 486.39 331.53C 486.59003 331.42 486.79 331.25 486.99002 331.02L486.99002 331.02L486.99002 328.47C 486.78003 328.28 486.58002 328.15 486.39 328.07C 486.2 327.99002 486 327.95 485.80002 327.95C 485.61002 327.95 485.42 328 485.25003 328.09003C 485.08002 328.18002 484.93002 328.31003 484.80002 328.47003C 484.67 328.63004 484.57 328.83002 484.50003 329.06003C 484.43002 329.29004 484.39005 329.54004 484.39005 329.82004C 484.39005 330.41003 484.51004 330.87003 484.74005 331.20004C 484.97006 331.53006 485.33 331.7 485.75 331.7z" stroke="none" fill="#1D1D1B" fill-rule="nonzero" />
            <path d="M489.95 326.39C 489.79 326.39 489.65002 326.34003 489.54 326.24002C 489.43002 326.14 489.37 326.01 489.37 325.86002C 489.37 325.7 489.41998 325.57 489.54 325.47C 489.65 325.37 489.79 325.32 489.95 325.32C 490.11002 325.32 490.25 325.37 490.36002 325.47C 490.47 325.57 490.53003 325.7 490.53003 325.86002C 490.53003 326.01 490.48004 326.14 490.36002 326.24002C 490.25 326.34 490.11 326.39 489.95 326.39zM489.53 332.27L489.53 327.38998L490.35 327.38998L490.35 332.27L489.53 332.27z" stroke="none" fill="#1D1D1B" fill-rule="nonzero" />
            <path d="M494.02 332.4C 493.69 332.4 493.38998 332.34 493.09998 332.22C 492.80997 332.1 492.56998 331.94 492.36 331.72C 492.15 331.5 491.97998 331.24 491.86 330.92C 491.74 330.61002 491.68 330.25 491.68 329.85C 491.68 329.45 491.74 329.09 491.87 328.77002C 491.99 328.45 492.16 328.18002 492.36 327.96002C 492.55997 327.74002 492.8 327.57 493.06 327.45C 493.32 327.33002 493.59 327.27002 493.87 327.27002C 494.18 327.27002 494.44998 327.32 494.69998 327.43002C 494.93997 327.54 495.15 327.69003 495.30997 327.89C 495.46997 328.09003 495.59998 328.33002 495.68997 328.61002C 495.77997 328.89 495.81998 329.21002 495.81998 329.55002C 495.81998 329.64 495.81998 329.72003 495.81998 329.81003C 495.81998 329.89 495.80997 329.97003 495.78998 330.03003L495.78998 330.03003L492.49997 330.03003C 492.52997 330.55002 492.69998 330.97003 492.98996 331.27002C 493.27994 331.57 493.65997 331.73 494.12997 331.73C 494.36 331.73 494.58 331.69 494.77997 331.62003C 494.97995 331.55005 495.16998 331.46002 495.34998 331.34003L495.34998 331.34003L495.63998 331.88004C 495.43 332.01004 495.18997 332.13004 494.93 332.23004C 494.66 332.35 494.36 332.4 494.02 332.4zM492.49 329.44L495.09998 329.44C 495.09998 328.94 494.99 328.57 494.77997 328.31C 494.56995 328.05 494.26996 327.91998 493.88995 327.91998C 493.71994 327.91998 493.54996 327.94998 493.38995 328.02C 493.22995 328.09 493.08997 328.19 492.95996 328.31998C 492.82996 328.44998 492.72995 328.61 492.63995 328.8C 492.57 328.99 492.51 329.2 492.49 329.44z" stroke="none" fill="#1D1D1B" fill-rule="nonzero" />
            <path d="M497.07 332.27L497.07 327.38998L497.75 327.38998L497.82 328.09L497.85 328.09C 498.08002 327.86 498.33002 327.66 498.59 327.5C 498.85 327.34 499.15 327.26 499.49 327.26C 500 327.26 500.38 327.42 500.62 327.74002C 500.86 328.06003 500.97998 328.54 500.97998 329.17L500.97998 329.17L500.97998 332.26L500.15997 332.26L500.15997 329.28C 500.15997 328.82 500.08997 328.49 499.93997 328.28C 499.78998 328.08 499.55997 327.97 499.23996 327.97C 498.98996 327.97 498.75995 328.03 498.56995 328.16C 498.37994 328.29 498.14993 328.47 497.90994 328.72L497.90994 328.72L497.90994 332.25L497.07 332.25L497.07 332.27z" stroke="none" fill="#1D1D1B" fill-rule="nonzero" />
            <path d="M503.79 332.4C 503.44 332.4 503.11002 332.34 502.80002 332.21C 502.49002 332.08 502.21002 331.91998 501.98 331.72998L501.98 331.72998L502.39 331.18C 502.6 331.35 502.82 331.49 503.05002 331.6C 503.27002 331.71 503.53003 331.76 503.83002 331.76C 504.15002 331.76 504.39 331.69 504.55002 331.54C 504.71002 331.39 504.79 331.21002 504.79 331C 504.79 330.87 504.76 330.76 504.69 330.67C 504.62 330.58002 504.54 330.49002 504.43 330.42C 504.33 330.35 504.21 330.29 504.07 330.23C 503.93002 330.17 503.80002 330.12003 503.67 330.07C 503.5 330.01 503.32 329.94 503.15002 329.86002C 502.98 329.78003 502.82004 329.69 502.68002 329.58002C 502.54 329.47003 502.43002 329.34003 502.34003 329.19C 502.25003 329.04 502.21002 328.87 502.21002 328.66C 502.21002 328.47 502.25003 328.28 502.33002 328.11002C 502.41 327.94 502.52002 327.79 502.66 327.67C 502.80002 327.55002 502.98 327.45 503.19 327.38C 503.4 327.31 503.63 327.27002 503.89 327.27002C 504.2 327.27002 504.48 327.32 504.74002 327.43002C 505.00003 327.54 505.22003 327.67 505.41003 327.82004L505.41003 327.82004L505.02002 328.34003C 504.85 328.21002 504.68002 328.11002 504.50003 328.03003C 504.32004 327.95004 504.12003 327.91003 503.91003 327.91003C 503.60004 327.91003 503.38004 327.98004 503.23004 328.12003C 503.09003 328.26004 503.01004 328.42 503.01004 328.61002C 503.01004 328.72 503.04004 328.82 503.10004 328.91C 503.16003 328.99 503.24005 329.07 503.34003 329.13C 503.44003 329.19 503.56003 329.25 503.69003 329.30002C 503.82004 329.35 503.96002 329.40002 504.10004 329.46002C 504.27005 329.53003 504.45004 329.60004 504.63004 329.67C 504.81003 329.74002 504.97003 329.84003 505.11005 329.95C 505.25006 330.06 505.37006 330.2 505.46005 330.36002C 505.55005 330.52002 505.59006 330.72 505.59006 330.94C 505.59006 331.14 505.55005 331.33002 505.47006 331.5C 505.39008 331.66998 505.28006 331.83 505.13007 331.96C 504.98007 332.09 504.79007 332.19998 504.57007 332.28C 504.33 332.36 504.08 332.4 503.79 332.4z" stroke="none" fill="#1D1D1B" fill-rule="nonzero" />
            <path d="M508.35 332.4C 508.09 332.4 507.87 332.36 507.69 332.28C 507.51 332.2 507.37 332.09 507.26 331.95C 507.15002 331.81003 507.07 331.64 507.02002 331.44C 506.97003 331.24 506.95 331.02 506.95 330.78L506.95 330.78L506.95 328.08L506.23 328.08L506.23 327.46L506.99002 327.41L507.09003 326.04L507.78003 326.04L507.78003 327.41L509.09003 327.41L509.09003 328.08002L507.78003 328.08002L507.78003 330.79C 507.78003 331.09 507.83002 331.32 507.95004 331.49002C 508.07007 331.66003 508.26004 331.74002 508.54004 331.74002C 508.63004 331.74002 508.72003 331.73 508.82004 331.7C 508.92004 331.67 509.01004 331.64 509.09003 331.61002L509.09003 331.61002L509.25003 332.23C 509.12003 332.28 508.97003 332.32 508.81003 332.35C 508.65002 332.38 508.51 332.4 508.35 332.4z" stroke="none" fill="#1D1D1B" fill-rule="nonzero" />
            <path d="M347.53 344.35C 347.09 344.35 346.7 344.27002 346.33 344.12C 345.97 343.97 345.65 343.74 345.38998 343.44998C 345.12997 343.15997 344.91998 342.8 344.78 342.37997C 344.63 341.95996 344.56 341.46997 344.56 340.93997C 344.56 340.40997 344.63998 339.93997 344.79 339.50998C 344.94 339.08997 345.15 338.72998 345.42 338.43997C 345.69 338.14996 346.01 337.91998 346.38 337.75998C 346.75 337.59998 347.15 337.52 347.59 337.52C 347.82 337.52 348.03 337.53998 348.22 337.59C 348.41 337.63998 348.58 337.69998 348.74 337.78C 348.9 337.86 349.03998 337.94 349.16 338.04C 349.28 338.14 349.39 338.24002 349.49 338.34L349.49 338.34L349.03 338.88C 348.86 338.71 348.67 338.56 348.45 338.44C 348.23 338.32 347.95 338.26 347.62003 338.26C 347.29004 338.26 346.98 338.32 346.72003 338.45C 346.46005 338.58002 346.22003 338.75 346.04004 338.98C 345.85004 339.21002 345.71005 339.49002 345.60004 339.82C 345.49002 340.15 345.44003 340.52002 345.44003 340.92C 345.44003 341.34003 345.49002 341.71002 345.59003 342.04C 345.69003 342.37 345.83002 342.65 346.01004 342.89C 346.19006 343.13004 346.42004 343.30002 346.69003 343.43002C 346.96002 343.56003 347.27002 343.62003 347.63004 343.62003C 347.86005 343.62003 348.09003 343.58002 348.30005 343.51004C 348.51004 343.44003 348.68005 343.34003 348.82004 343.22003L348.82004 343.22003L348.82004 341.50003L347.42004 341.50003L347.42004 340.81003L349.58005 340.81003L349.58005 343.58002C 349.37006 343.80002 349.08005 343.98 348.74005 344.13C 348.37 344.28 347.97 344.35 347.53 344.35z" stroke="none" fill="#1D1D1B" fill-rule="nonzero" />
            <path d="M353.08 344.35C 352.75 344.35 352.44998 344.29 352.15997 344.17C 351.87997 344.05002 351.62997 343.89 351.41998 343.67C 351.21 343.45 351.03998 343.19 350.91998 342.87003C 350.8 342.56003 350.74 342.2 350.74 341.80002C 350.74 341.40002 350.8 341.04 350.93 340.72003C 351.05 340.40002 351.22 340.13004 351.41998 339.91003C 351.62 339.69003 351.86 339.52002 352.12 339.40002C 352.38 339.28003 352.65 339.22003 352.93 339.22003C 353.24 339.22003 353.50998 339.27002 353.75998 339.38004C 353.99997 339.49002 354.21 339.64005 354.36996 339.84003C 354.52997 340.04004 354.65997 340.28003 354.74997 340.56003C 354.83997 340.84003 354.87997 341.16003 354.87997 341.50003C 354.87997 341.59003 354.87997 341.67004 354.87997 341.76004C 354.87997 341.84003 354.86996 341.92004 354.84998 341.98004L354.84998 341.98004L351.55997 341.98004C 351.58997 342.50003 351.75998 342.91003 352.04996 343.22003C 352.33994 343.53003 352.71997 343.68002 353.18997 343.68002C 353.41998 343.68002 353.63998 343.64 353.83997 343.57004C 354.03995 343.50006 354.22998 343.41003 354.40997 343.29004L354.40997 343.29004L354.69998 343.83005C 354.49 343.96005 354.24997 344.08005 353.99 344.18005C 353.73 344.28006 353.41 344.35 353.08 344.35zM351.54 341.4L354.15 341.4C 354.15 340.9 354.04 340.53 353.83 340.27C 353.62 340.00998 353.31998 339.87997 352.93997 339.87997C 352.76996 339.87997 352.59998 339.90997 352.43997 339.97998C 352.27997 340.05 352.13998 340.15 352.00998 340.27997C 351.87997 340.40997 351.77997 340.56998 351.68997 340.75998C 351.59998 340.94998 351.57 341.16 351.54 341.4z" stroke="none" fill="#1D1D1B" fill-rule="nonzero" />
            <path d="M356.13 344.23L356.13 339.35L356.81 339.35L356.88 340.23L356.91 340.23C 357.08002 339.92 357.28 339.68002 357.52 339.5C 357.75998 339.32 358.02 339.23 358.3 339.23C 358.49 339.23 358.66998 339.26 358.81998 339.33002L358.81998 339.33002L358.65997 340.05002C 358.58 340.02002 358.50998 340.00003 358.43997 339.99002C 358.36996 339.98 358.28998 339.97003 358.18997 339.97003C 357.97998 339.97003 357.76996 340.05002 357.53998 340.22003C 357.31 340.39005 357.11996 340.68002 356.94998 341.09003L356.94998 341.09003L356.94998 344.22003L356.13 344.22003L356.13 344.23z" stroke="none" fill="#1D1D1B" fill-rule="nonzero" />
            <path d="M359.71 344.23L359.71 339.35L360.38998 339.35L360.46 340.05002L360.49 340.05002C 360.69998 339.82 360.94 339.62003 361.19 339.46002C 361.44 339.30002 361.71 339.22003 362.01 339.22003C 362.39 339.22003 362.68002 339.30002 362.89 339.47003C 363.1 339.63004 363.26 339.86005 363.36002 340.16003C 363.61002 339.88004 363.87003 339.65002 364.13 339.48004C 364.39 339.31003 364.67 339.22003 364.97 339.22003C 365.47 339.22003 365.85 339.38004 366.09 339.70004C 366.33 340.02005 366.46 340.50003 366.46 341.12006L366.46 341.12006L366.46 344.21005L365.63998 344.21005L365.63998 341.23004C 365.63998 340.77005 365.56998 340.44003 365.41998 340.23004C 365.27 340.03003 365.03998 339.92004 364.74 339.92004C 364.37 339.92004 363.96 340.17004 363.52 340.67004L363.52 340.67004L363.52 344.20004L362.69998 344.20004L362.69998 341.22003C 362.69998 340.76004 362.62997 340.43002 362.47998 340.22003C 362.33 340.02002 362.09998 339.91003 361.78998 339.91003C 361.41998 339.91003 361.00998 340.16003 360.56998 340.66003L360.56998 340.66003L360.56998 344.19003L359.71 344.19003L359.71 344.23z" stroke="none" fill="#1D1D1B" fill-rule="nonzero" />
            <path d="M369.21 344.35C 368.8 344.35 368.46 344.23 368.19 343.99002C 367.92 343.75003 367.78 343.41003 367.78 342.97003C 367.78 342.43002 368.02 342.02002 368.49 341.74002C 368.96 341.46002 369.72 341.26 370.77 341.14C 370.77 340.99002 370.75 340.84003 370.72998 340.69C 370.69998 340.54 370.65 340.41 370.56998 340.3C 370.49997 340.19 370.38998 340.09 370.25998 340.02C 370.12997 339.94998 369.96 339.91998 369.75998 339.91998C 369.47998 339.91998 369.21 339.96997 368.96997 340.08C 368.72995 340.19 368.49997 340.31 368.30997 340.43997L368.30997 340.43997L367.98996 339.86996C 368.21997 339.71997 368.49997 339.57996 368.81995 339.43997C 369.14993 339.29996 369.50995 339.22998 369.89993 339.22998C 370.49994 339.22998 370.92993 339.40997 371.18994 339.77997C 371.45993 340.13995 371.58994 340.62997 371.58994 341.23996L371.58994 341.23996L371.58994 344.22995L370.90994 344.22995L370.83994 343.64996L370.80994 343.64996C 370.57993 343.83997 370.31995 344.00995 370.05994 344.14996C 369.8 344.28 369.52 344.35 369.21 344.35zM369.45 343.69C 369.68002 343.69 369.91 343.63 370.11002 343.52C 370.32 343.41 370.54 343.25 370.77002 343.03L370.77002 343.03L370.77002 341.67C 370.36002 341.72 370.02002 341.79 369.74002 341.86002C 369.46002 341.93002 369.24002 342.02002 369.07 342.12003C 368.9 342.22003 368.78 342.34003 368.7 342.47003C 368.62003 342.60004 368.58002 342.74002 368.58002 342.90002C 368.58002 343.18002 368.66 343.38004 368.83002 343.50003C 369 343.63 369.21 343.69 369.45 343.69z" stroke="none" fill="#1D1D1B" fill-rule="nonzero" />
            <path d="M373.19 344.23L373.19 339.35L373.87 339.35L373.94 340.05002L373.97 340.05002C 374.2 339.82 374.45 339.62003 374.71 339.46002C 374.97 339.30002 375.27 339.22003 375.61 339.22003C 376.12997 339.22003 376.5 339.38004 376.74 339.70004C 376.97998 340.02005 377.09998 340.50003 377.09998 341.12006L377.09998 341.12006L377.09998 344.21005L376.27997 344.21005L376.27997 341.23004C 376.27997 340.77005 376.20996 340.44003 376.05997 340.23004C 375.90997 340.03003 375.67996 339.92004 375.35995 339.92004C 375.10995 339.92004 374.87994 339.98004 374.68994 340.11005C 374.49994 340.24005 374.26993 340.42004 374.02994 340.67004L374.02994 340.67004L374.02994 344.20004L373.19 344.20004L373.19 344.23z" stroke="none" fill="#1D1D1B" fill-rule="nonzero" />
            <path d="M380 344.23L382.23 337.65002L383.17 337.65002L385.40002 344.23L384.51 344.23L383.89 342.22L381.49002 342.22L380.86002 344.23L380 344.23zM382 340.55L381.69 341.55L383.67 341.55L383.36002 340.55C 383.24002 340.18 383.13 339.81998 383.02002 339.44998C 382.91003 339.08 382.81003 338.71 382.7 338.33L382.7 338.33L382.66 338.33C 382.56 338.71 382.46 339.08 382.35 339.44998C 382.24 339.81 382.12 340.18 382 340.55z" stroke="none" fill="#1D1D1B" fill-rule="nonzero" />
            <path d="M388.23 344.35C 387.91 344.35 387.61002 344.29 387.33002 344.18C 387.05002 344.07 386.81003 343.9 386.6 343.68C 386.4 343.46 386.24002 343.19 386.12 342.88C 386 342.56 385.94 342.2 385.94 341.80002C 385.94 341.39 386 341.03003 386.13 340.71002C 386.26 340.39 386.43 340.12003 386.64 339.90002C 386.85 339.68002 387.1 339.51 387.39 339.40002C 387.67 339.29004 387.97 339.23 388.29 339.23C 388.61002 339.23 388.89 339.29 389.11002 339.40002C 389.34003 339.51 389.54 339.65002 389.71002 339.80002L389.71002 339.80002L389.29 340.34003C 389.15 340.21002 389 340.11002 388.84 340.03003C 388.68 339.95004 388.51 339.91003 388.31 339.91003C 388.09 339.91003 387.88998 339.95004 387.7 340.04004C 387.51 340.13004 387.35 340.26004 387.22 340.43005C 387.09 340.60007 386.98 340.80005 386.9 341.03006C 386.82 341.26007 386.78 341.52005 386.78 341.80005C 386.78 342.08005 386.82 342.34006 386.88998 342.56006C 386.96 342.79007 387.06998 342.98007 387.19998 343.15005C 387.33 343.31006 387.49 343.44006 387.68 343.53006C 387.87 343.62006 388.07 343.67007 388.28998 343.67007C 388.52 343.67007 388.72998 343.6201 388.91998 343.52008C 389.11 343.42007 389.27997 343.3101 389.43997 343.17007L389.43997 343.17007L389.79996 343.72006C 389.57996 343.91006 389.32996 344.07007 389.06995 344.18005C 388.8 344.3 388.52 344.35 388.23 344.35z" stroke="none" fill="#1D1D1B" fill-rule="nonzero" />
            <path d="M392.05 344.35C 391.63998 344.35 391.3 344.23 391.03 343.99002C 390.76 343.75003 390.62 343.41003 390.62 342.97003C 390.62 342.43002 390.86 342.02002 391.33 341.74002C 391.8 341.46002 392.56 341.26 393.61 341.14C 393.61 340.99002 393.59 340.84003 393.56998 340.69C 393.53998 340.54 393.49 340.41 393.40997 340.3C 393.33997 340.19 393.22998 340.09 393.09998 340.02C 392.96997 339.94998 392.8 339.91998 392.59998 339.91998C 392.31998 339.91998 392.05 339.96997 391.80997 340.08C 391.56995 340.19 391.33997 340.31 391.14996 340.43997L391.14996 340.43997L390.82996 339.86996C 391.05997 339.71997 391.33997 339.57996 391.65994 339.43997C 391.98993 339.29996 392.34995 339.22998 392.73993 339.22998C 393.33994 339.22998 393.76993 339.40997 394.02994 339.77997C 394.29993 340.13995 394.42993 340.62997 394.42993 341.23996L394.42993 341.23996L394.42993 344.22995L393.74994 344.22995L393.67993 343.64996L393.64993 343.64996C 393.41992 343.83997 393.15994 344.00995 392.89993 344.14996C 392.65 344.28 392.36 344.35 392.05 344.35zM392.29 343.69C 392.52002 343.69 392.75 343.63 392.95 343.52C 393.16 343.41 393.38 343.25 393.61002 343.03L393.61002 343.03L393.61002 341.67C 393.2 341.72 392.86002 341.79 392.58002 341.86002C 392.30002 341.93002 392.08002 342.02002 391.91 342.12003C 391.74 342.22003 391.62 342.34003 391.54 342.47003C 391.46002 342.60004 391.42 342.74002 391.42 342.90002C 391.42 343.18002 391.5 343.38004 391.67 343.50003C 391.85 343.63 392.05 343.69 392.29 343.69z" stroke="none" fill="#1D1D1B" fill-rule="nonzero" />
            <path d="M397.7 344.35C 397.08002 344.35 396.59003 344.13 396.23 343.69C 395.87 343.25 395.68002 342.62 395.68002 341.8C 395.68002 341.4 395.74002 341.05 395.86002 340.72998C 395.98 340.40997 396.13 340.13998 396.33002 339.91998C 396.52002 339.69998 396.75003 339.52997 397.00003 339.40997C 397.25003 339.28998 397.52002 339.22998 397.80002 339.22998C 398.08002 339.22998 398.33002 339.27997 398.53003 339.37997C 398.74002 339.47998 398.95004 339.61996 399.16003 339.78998L399.16003 339.78998L399.12003 338.96L399.12003 337.08L399.95 337.08L399.95 344.22998L399.27002 344.22998L399.2 343.65997L399.17 343.65997C 398.98 343.84998 398.75 344.00998 398.5 344.14996C 398.26 344.28 397.99 344.35 397.7 344.35zM397.88 343.66C 398.11002 343.66 398.32 343.6 398.52002 343.49C 398.72003 343.37997 398.92 343.21 399.12003 342.97998L399.12003 342.97998L399.12003 340.43C 398.91003 340.24 398.71002 340.11 398.52002 340.03C 398.33002 339.95 398.13 339.91 397.93002 339.91C 397.74002 339.91 397.55002 339.95 397.38004 340.05002C 397.21002 340.14 397.06003 340.27002 396.93002 340.43002C 396.80002 340.59003 396.7 340.79 396.63004 341.02002C 396.56006 341.25003 396.52005 341.50003 396.52005 341.78003C 396.52005 342.37003 396.64005 342.83002 396.87006 343.16003C 397.12 343.5 397.45 343.66 397.88 343.66z" stroke="none" fill="#1D1D1B" fill-rule="nonzero" />
            <path d="M403.63 344.35C 403.30002 344.35 403 344.29 402.71 344.17C 402.43 344.05002 402.18 343.89 401.97 343.67C 401.76 343.45 401.59 343.19 401.47 342.87003C 401.35 342.56003 401.29 342.2 401.29 341.80002C 401.29 341.40002 401.35 341.04 401.48 340.72003C 401.6 340.40002 401.77002 340.13004 401.97 339.91003C 402.17 339.69003 402.41 339.52002 402.67 339.40002C 402.93002 339.28003 403.2 339.22003 403.48 339.22003C 403.79 339.22003 404.06 339.27002 404.31 339.38004C 404.55 339.49002 404.76 339.64005 404.91998 339.84003C 405.08 340.04004 405.21 340.28003 405.3 340.56003C 405.38998 340.84003 405.43 341.16003 405.43 341.50003C 405.43 341.59003 405.43 341.67004 405.43 341.76004C 405.43 341.84003 405.41998 341.92004 405.4 341.98004L405.4 341.98004L402.11 341.98004C 402.13998 342.50003 402.31 342.91003 402.59998 343.22003C 402.88995 343.53003 403.27 343.68002 403.74 343.68002C 403.97 343.68002 404.19 343.64 404.38998 343.57004C 404.58997 343.50006 404.78 343.41003 404.96 343.29004L404.96 343.29004L405.25 343.83005C 405.04 343.96005 404.8 344.08005 404.54 344.18005C 404.28003 344.28006 403.97 344.35 403.63 344.35zM402.1 341.4L404.71 341.4C 404.71 340.9 404.6 340.53 404.38998 340.27C 404.18 340.00998 403.87997 339.87997 403.49997 339.87997C 403.32996 339.87997 403.15997 339.90997 402.99997 339.97998C 402.83997 340.05 402.69998 340.15 402.56998 340.27997C 402.43997 340.40997 402.33997 340.56998 402.24997 340.75998C 402.15997 340.94998 402.12 341.16 402.1 341.4z" stroke="none" fill="#1D1D1B" fill-rule="nonzero" />
            <path d="M406.68 344.23L406.68 339.35L407.36 339.35L407.43 340.05002L407.46 340.05002C 407.66998 339.82 407.91 339.62003 408.16 339.46002C 408.41 339.30002 408.68 339.22003 408.98 339.22003C 409.36002 339.22003 409.65002 339.30002 409.86002 339.47003C 410.07 339.63004 410.23 339.86005 410.33002 340.16003C 410.58002 339.88004 410.84003 339.65002 411.1 339.48004C 411.36002 339.31003 411.64 339.22003 411.94 339.22003C 412.44 339.22003 412.82 339.38004 413.06 339.70004C 413.3 340.02005 413.43 340.50003 413.43 341.12006L413.43 341.12006L413.43 344.21005L412.61 344.21005L412.61 341.23004C 412.61 340.77005 412.53998 340.44003 412.38998 340.23004C 412.24 340.03003 412.00998 339.92004 411.71 339.92004C 411.34 339.92004 410.93 340.17004 410.49 340.67004L410.49 340.67004L410.49 344.20004L409.66998 344.20004L409.66998 341.22003C 409.66998 340.76004 409.59998 340.43002 409.44998 340.22003C 409.3 340.02002 409.06998 339.91003 408.75998 339.91003C 408.38998 339.91003 407.97998 340.16003 407.53998 340.66003L407.53998 340.66003L407.53998 344.19003L406.68 344.19003L406.68 344.23z" stroke="none" fill="#1D1D1B" fill-rule="nonzero" />
            <path d="M415.48 338.35C 415.32 338.35 415.18002 338.30002 415.07 338.2C 414.96 338.1 414.9 337.97 414.9 337.82C 414.9 337.66 414.96 337.53 415.07 337.43C 415.18002 337.33 415.32 337.28 415.48 337.28C 415.64 337.28 415.78 337.33 415.89 337.43C 416.00003 337.53 416.06003 337.66 416.06003 337.82C 416.06003 337.97 416.00003 338.1 415.89 338.2C 415.78 338.30002 415.64 338.35 415.48 338.35zM415.05 344.23L415.05 339.35L415.87 339.35L415.87 344.23L415.05 344.23z" stroke="none" fill="#1D1D1B" fill-rule="nonzero" />
            <path d="M419.5 344.35C 419.18 344.35 418.88 344.29 418.6 344.18C 418.32 344.07 418.08002 343.9 417.87 343.68C 417.66998 343.46 417.51 343.19 417.38998 342.88C 417.27 342.56 417.21 342.2 417.21 341.80002C 417.21 341.39 417.27 341.03003 417.4 340.71002C 417.53 340.39 417.69998 340.12003 417.91 339.90002C 418.12 339.68002 418.37 339.51 418.66 339.40002C 418.94 339.29004 419.24 339.23 419.56 339.23C 419.88 339.23 420.16 339.29 420.38 339.40002C 420.61002 339.51 420.81 339.65002 420.98 339.80002L420.98 339.80002L420.56 340.34003C 420.41998 340.21002 420.27 340.11002 420.11 340.03003C 419.94998 339.95004 419.78 339.91003 419.58 339.91003C 419.36 339.91003 419.15997 339.95004 418.97 340.04004C 418.78 340.13004 418.62 340.26004 418.49 340.43005C 418.36 340.60007 418.25 340.80005 418.16998 341.03006C 418.09 341.26007 418.05 341.52005 418.05 341.80005C 418.05 342.08005 418.09 342.34006 418.15997 342.56006C 418.22998 342.79007 418.33997 342.98007 418.46997 343.15005C 418.59998 343.31006 418.75998 343.44006 418.94998 343.53006C 419.13998 343.62006 419.34 343.67007 419.55997 343.67007C 419.78998 343.67007 419.99997 343.6201 420.18997 343.52008C 420.37997 343.42007 420.54996 343.3101 420.70996 343.17007L420.70996 343.17007L421.06995 343.72006C 420.84995 343.91006 420.59995 344.07007 420.33994 344.18005C 420.08 344.3 419.79 344.35 419.5 344.35z" stroke="none" fill="#1D1D1B" fill-rule="nonzero" />
            <path d="M424.34 344.23L424.34 337.65002L428.13 337.65002L428.13 338.35004L425.17 338.35004L425.17 340.42004L427.67 340.42004L427.67 341.13004L425.17 341.13004L425.17 343.52005L428.23 343.52005L428.23 344.23004L424.34 344.23004L424.34 344.23z" stroke="none" fill="#1D1D1B" fill-rule="nonzero" />
            <path d="M428.9 344.23L430.5 341.68002L429.02 339.35004L429.91 339.35004L430.56 340.42004C 430.63 340.55005 430.71 340.69003 430.79 340.83005C 430.87 340.97006 430.95 341.10004 431.04 341.24005L431.04 341.24005L431.08002 341.24005C 431.15002 341.11005 431.23 340.97006 431.30002 340.83005C 431.37003 340.69003 431.45 340.56006 431.52002 340.42004L431.52002 340.42004L432.11002 339.35004L432.97 339.35004L431.49 341.77005L433.08 344.23004L432.18997 344.23004L431.47998 343.10004C 431.38998 342.95004 431.30997 342.81003 431.21997 342.66003C 431.12997 342.51004 431.03998 342.37003 430.94998 342.23004L430.94998 342.23004L430.90997 342.23004C 430.81998 342.37006 430.73996 342.51004 430.65997 342.66003C 430.58 342.80005 430.49997 342.95004 430.41998 343.11005L430.41998 343.11005L429.75998 344.24005L428.9 344.24005L428.9 344.23z" stroke="none" fill="#1D1D1B" fill-rule="nonzero" />
            <path d="M435.97 344.35C 435.65 344.35 435.35 344.29 435.07 344.18C 434.79 344.07 434.55002 343.9 434.34 343.68C 434.13998 343.46 433.98 343.19 433.86 342.88C 433.74 342.56 433.68 342.2 433.68 341.80002C 433.68 341.39 433.74 341.03003 433.87 340.71002C 434 340.39 434.16998 340.12003 434.38 339.90002C 434.59 339.68002 434.84 339.51 435.13 339.40002C 435.41 339.29004 435.71 339.23 436.03 339.23C 436.35 339.23 436.63 339.29 436.85 339.40002C 437.08002 339.51 437.28 339.65002 437.45 339.80002L437.45 339.80002L437.03 340.34003C 436.88998 340.21002 436.74 340.11002 436.58 340.03003C 436.41998 339.95004 436.25 339.91003 436.05 339.91003C 435.83 339.91003 435.62997 339.95004 435.44 340.04004C 435.25 340.13004 435.09 340.26004 434.96 340.43005C 434.83 340.60007 434.72 340.80005 434.63998 341.03006C 434.56 341.26007 434.52 341.52005 434.52 341.80005C 434.52 342.08005 434.56 342.34006 434.62997 342.56006C 434.69998 342.79007 434.80997 342.98007 434.93997 343.15005C 435.06998 343.31006 435.22998 343.44006 435.41998 343.53006C 435.61 343.62006 435.81 343.67007 436.02997 343.67007C 436.25998 343.67007 436.46997 343.6201 436.65997 343.52008C 436.84998 343.42007 437.01996 343.3101 437.17996 343.17007L437.17996 343.17007L437.53995 343.72006C 437.31995 343.91006 437.06995 344.07007 436.80994 344.18005C 436.54 344.3 436.26 344.35 435.97 344.35z" stroke="none" fill="#1D1D1B" fill-rule="nonzero" />
            <path d="M438.67 344.23L438.67 337.08002L439.49002 337.08002L439.49002 339.03003L439.46002 340.03003C 439.69003 339.81003 439.94003 339.62003 440.19003 339.46002C 440.44003 339.30002 440.74002 339.22003 441.08005 339.22003C 441.60004 339.22003 441.97006 339.38004 442.21005 339.70004C 442.45004 340.02005 442.57004 340.50003 442.57004 341.12006L442.57004 341.12006L442.57004 344.21005L441.75003 344.21005L441.75003 341.23004C 441.75003 340.77005 441.68002 340.44003 441.53003 340.23004C 441.38004 340.03003 441.15002 339.92004 440.83002 339.92004C 440.58002 339.92004 440.35 339.98004 440.16 340.11005C 439.97 340.24005 439.74 340.42004 439.5 340.67004L439.5 340.67004L439.5 344.20004L438.67 344.20004L438.67 344.23z" stroke="none" fill="#1D1D1B" fill-rule="nonzero" />
            <path d="M445.3 344.35C 444.88998 344.35 444.55 344.23 444.28 343.99002C 444.01 343.75003 443.87 343.41003 443.87 342.97003C 443.87 342.43002 444.11 342.02002 444.58 341.74002C 445.05 341.46002 445.81 341.26 446.86 341.14C 446.86 340.99002 446.84998 340.84003 446.81998 340.69C 446.78998 340.53998 446.74 340.41 446.65997 340.3C 446.58997 340.19 446.47998 340.09 446.34998 340.02C 446.21997 339.94998 446.05 339.91998 445.84998 339.91998C 445.56998 339.91998 445.3 339.96997 445.05997 340.08C 444.81995 340.19 444.58997 340.31 444.39996 340.43997L444.39996 340.43997L444.07996 339.86996C 444.30997 339.71997 444.58997 339.57996 444.90994 339.43997C 445.23993 339.29996 445.59995 339.22998 445.98993 339.22998C 446.58994 339.22998 447.01993 339.40997 447.27994 339.77997C 447.54993 340.13995 447.67993 340.62997 447.67993 341.23996L447.67993 341.23996L447.67993 344.22995L446.99994 344.22995L446.92993 343.64996L446.89993 343.64996C 446.66992 343.83997 446.40994 344.00995 446.14993 344.14996C 445.9 344.28 445.61 344.35 445.3 344.35zM445.54 343.69C 445.77002 343.69 446 343.63 446.2 343.52C 446.40002 343.40997 446.63 343.25 446.86002 343.03L446.86002 343.03L446.86002 341.67C 446.45 341.72 446.11002 341.79 445.83002 341.86002C 445.55002 341.93002 445.33002 342.02002 445.16 342.12003C 444.99 342.22003 444.87 342.34003 444.79 342.47003C 444.71002 342.60004 444.67 342.74002 444.67 342.90002C 444.67 343.18002 444.75 343.38004 444.92 343.50003C 445.1 343.63 445.3 343.69 445.54 343.69z" stroke="none" fill="#1D1D1B" fill-rule="nonzero" />
            <path d="M449.29 344.23L449.29 339.35L449.97 339.35L450.04 340.05002L450.07 340.05002C 450.30002 339.82 450.55002 339.62003 450.81 339.46002C 451.06998 339.30002 451.37 339.22003 451.71 339.22003C 452.22 339.22003 452.6 339.38004 452.84 339.70004C 453.08 340.02005 453.19998 340.50003 453.19998 341.12006L453.19998 341.12006L453.19998 344.21005L452.37997 344.21005L452.37997 341.23004C 452.37997 340.77005 452.30997 340.44003 452.15997 340.23004C 452.00998 340.02005 451.77997 339.92004 451.45996 339.92004C 451.20996 339.92004 450.97995 339.98004 450.78995 340.11005C 450.59995 340.24005 450.36993 340.42004 450.12994 340.67004L450.12994 340.67004L450.12994 344.20004L449.29 344.20004L449.29 344.23z" stroke="none" fill="#1D1D1B" fill-rule="nonzero" />
            <path d="M456.42 346.48C 456.12003 346.48 455.84003 346.45 455.6 346.39C 455.35 346.33002 455.14 346.25 454.96 346.13C 454.78 346.02002 454.65 345.88 454.55 345.72C 454.44998 345.56 454.4 345.37 454.4 345.16C 454.4 344.95 454.46 344.75 454.59 344.57C 454.72 344.39 454.88998 344.21002 455.11 344.06L455.11 344.06L455.11 344.02C 454.99 343.94998 454.88998 343.84 454.8 343.71C 454.72 343.58 454.66998 343.41998 454.66998 343.22C 454.66998 343.01 454.72998 342.83 454.84 342.68C 454.94998 342.53 455.07 342.41 455.19998 342.32L455.19998 342.32L455.19998 342.28C 455.03998 342.15 454.88998 341.97 454.75998 341.74C 454.62997 341.52 454.55997 341.25998 454.55997 340.96C 454.55997 340.69 454.60995 340.44998 454.70996 340.24C 454.80997 340.03 454.93997 339.84 455.10995 339.69C 455.27997 339.54 455.46994 339.42 455.69995 339.34C 455.91995 339.26 456.15994 339.22 456.40994 339.22C 456.53995 339.22 456.66995 339.23 456.78995 339.26C 456.90994 339.29 457.00995 339.31 457.10995 339.34L457.10995 339.34L458.80997 339.34L458.80997 339.97L457.80997 339.97C 457.91995 340.08 458.01996 340.23 458.09998 340.4C 458.17996 340.57 458.21997 340.77 458.21997 340.97C 458.21997 341.23 458.16998 341.47 458.07996 341.68C 457.98993 341.88998 457.85995 342.07 457.69995 342.21C 457.53995 342.35 457.34995 342.47 457.12994 342.55C 456.90994 342.62997 456.67993 342.66998 456.42993 342.66998C 456.30994 342.66998 456.18994 342.65997 456.05994 342.62997C 455.92993 342.59998 455.80994 342.55997 455.69995 342.49997C 455.60995 342.56998 455.53995 342.65997 455.47995 342.74997C 455.41995 342.83997 455.38995 342.94998 455.38995 343.08997C 455.38995 343.23996 455.44995 343.36996 455.56995 343.46997C 455.68994 343.56998 455.91995 343.61996 456.24994 343.61996L456.24994 343.61996L457.18994 343.61996C 457.75995 343.61996 458.18994 343.70996 458.46994 343.89996C 458.74994 344.07996 458.89993 344.37997 458.89993 344.78998C 458.89993 345.02 458.83994 345.22998 458.72992 345.43997C 458.61993 345.63998 458.44992 345.81998 458.23993 345.97998C 458.02994 346.12997 457.76993 346.25998 457.45993 346.34998C 457.15 346.44 456.81 346.48 456.42 346.48zM456.54 345.91C 456.77002 345.91 456.99002 345.88 457.18002 345.83002C 457.37003 345.77002 457.53003 345.7 457.67 345.61002C 457.80002 345.52002 457.91 345.41 457.98 345.29C 458.05002 345.17 458.09 345.05002 458.09 344.92C 458.09 344.69 458.01 344.54 457.84 344.45C 457.66998 344.36002 457.43 344.32 457.11 344.32L457.11 344.32L456.27 344.32C 456.18 344.32 456.06998 344.32 455.96 344.31C 455.85 344.3 455.74 344.28 455.63 344.24C 455.46 344.37 455.33002 344.5 455.25 344.63998C 455.16998 344.77997 455.13 344.91998 455.13 345.06C 455.13 345.32 455.25 345.53 455.51 345.68C 455.76 345.83 456.1 345.91 456.54 345.91zM456.42 342.13C 456.56003 342.13 456.69 342.1 456.82 342.05002C 456.94 342.00003 457.05002 341.92 457.15 341.82C 457.25 341.72 457.32 341.6 457.38 341.45C 457.43 341.31 457.46 341.14 457.46 340.96002C 457.46 340.60004 457.36 340.32 457.16 340.12003C 456.96 339.92 456.71 339.82004 456.43 339.82004C 456.13998 339.82004 455.9 339.92004 455.69998 340.12003C 455.49997 340.32004 455.4 340.60004 455.4 340.96002C 455.4 341.14 455.43 341.30002 455.47998 341.45C 455.52997 341.59003 455.61 341.72 455.71 341.82C 455.81 341.92 455.91998 342 456.03998 342.05002C 456.15 342.11 456.28 342.13 456.42 342.13z" stroke="none" fill="#1D1D1B" fill-rule="nonzero" />
            <path d="M461.77 344.35C 461.44 344.35 461.13998 344.29 460.84998 344.17C 460.55997 344.05002 460.31998 343.89 460.11 343.67C 459.9 343.45 459.72998 343.19 459.61 342.87003C 459.49 342.56003 459.43 342.2 459.43 341.80002C 459.43 341.40002 459.49 341.04 459.62 340.72003C 459.74 340.40002 459.91 340.13004 460.11 339.91003C 460.31 339.69003 460.55 339.52002 460.81 339.40002C 461.07 339.28003 461.34 339.22003 461.62 339.22003C 461.93 339.22003 462.19998 339.27002 462.44998 339.38004C 462.68997 339.49002 462.9 339.64005 463.05997 339.84003C 463.21997 340.04004 463.34998 340.28003 463.43997 340.56003C 463.52997 340.84003 463.56998 341.16003 463.56998 341.50003C 463.56998 341.59003 463.56998 341.67004 463.56998 341.76004C 463.56998 341.84003 463.55997 341.92004 463.53998 341.98004L463.53998 341.98004L460.24997 341.98004C 460.27997 342.50003 460.44998 342.91003 460.73996 343.22003C 461.02994 343.53003 461.40997 343.68002 461.87997 343.68002C 462.11 343.68002 462.33 343.64 462.52997 343.57004C 462.72995 343.50006 462.91998 343.41003 463.09998 343.29004L463.09998 343.29004L463.38998 343.83005C 463.18 343.96005 462.93997 344.08005 462.68 344.18005C 462.42 344.28006 462.11 344.35 461.77 344.35zM460.24 341.4L462.84998 341.4C 462.84998 340.9 462.74 340.53 462.52997 340.27C 462.31998 340.00998 462.01996 339.87997 461.63995 339.87997C 461.46994 339.87997 461.29996 339.90997 461.13995 339.97998C 460.97995 340.05 460.83997 340.15 460.70996 340.27997C 460.57996 340.40997 460.47995 340.56998 460.38995 340.75998C 460.32 340.95 460.26 341.16 460.24 341.4z" stroke="none" fill="#1D1D1B" fill-rule="nonzero" />
            <path d="M468.79 344.35C 468.33002 344.35 467.9 344.26 467.5 344.09C 467.1 343.91998 466.76 343.68 466.48 343.38L466.48 343.38L466.98 342.80002C 467.21002 343.05002 467.49002 343.25003 467.81 343.40002C 468.13 343.55002 468.46 343.63004 468.8 343.63004C 469.22998 343.63004 469.56998 343.53003 469.81 343.33005C 470.05002 343.13007 470.16998 342.87006 470.16998 342.55005C 470.16998 342.38004 470.13998 342.24005 470.09 342.12006C 470.03 342.00006 469.96 341.90005 469.86 341.82007C 469.75998 341.74008 469.65 341.66006 469.50998 341.59006C 469.37997 341.52005 469.22998 341.45004 469.08 341.38007L469.08 341.38007L468.13998 340.97006C 467.99 340.90005 467.83 340.82007 467.66998 340.73007C 467.50998 340.64008 467.37 340.52008 467.24 340.39008C 467.11 340.26007 467.00998 340.10007 466.93 339.91006C 466.85 339.73007 466.81 339.51007 466.81 339.27005C 466.81 339.02005 466.86 338.79004 466.97 338.58005C 467.07 338.37006 467.22 338.18005 467.4 338.02005C 467.58 337.86005 467.8 337.74005 468.05 337.65005C 468.3 337.56006 468.58 337.52005 468.87997 337.52005C 469.27 337.52005 469.63998 337.60004 469.96997 337.75006C 470.29996 337.9001 470.58997 338.10007 470.81998 338.34006L470.81998 338.34006L470.36996 338.88007C 470.16995 338.69006 469.94995 338.53006 469.69995 338.42007C 469.44995 338.3101 469.17996 338.25006 468.86996 338.25006C 468.49997 338.25006 468.20996 338.33005 467.97995 338.51007C 467.75995 338.68008 467.63995 338.92007 467.63995 339.22006C 467.63995 339.38007 467.66995 339.52005 467.73996 339.63007C 467.79996 339.74005 467.88995 339.84006 467.99997 339.92007C 468.10995 340.00006 468.21997 340.08008 468.34998 340.14008C 468.47998 340.20007 468.61 340.26007 468.74 340.32007L468.74 340.32007L469.66998 340.72006C 469.86 340.80005 470.02997 340.89008 470.19998 341.00006C 470.37 341.10007 470.50998 341.22006 470.62997 341.36005C 470.74997 341.50006 470.84998 341.66003 470.91998 341.84006C 470.99 342.02005 471.02 342.24005 471.02 342.48007C 471.02 342.74008 470.97 342.99008 470.86 343.21008C 470.75998 343.4401 470.61 343.64008 470.40997 343.8101C 470.21997 343.9801 469.97998 344.11008 469.70996 344.21008C 469.43994 344.3101 469.14 344.35 468.79 344.35z" stroke="none" fill="#1D1D1B" fill-rule="nonzero" />
            <path d="M474.32 344.35C 473.99002 344.35 473.69 344.29 473.4 344.17C 473.11 344.05002 472.87 343.89 472.66 343.67C 472.45 343.45 472.28 343.19 472.16 342.87003C 472.04 342.56003 471.98 342.2 471.98 341.80002C 471.98 341.40002 472.04 341.04 472.17 340.72003C 472.29 340.40002 472.46002 340.13004 472.66 339.91003C 472.86002 339.69003 473.1 339.52002 473.36002 339.40002C 473.62003 339.28003 473.89 339.22003 474.17 339.22003C 474.48 339.22003 474.75 339.27002 475 339.38004C 475.24 339.49002 475.45 339.64005 475.61 339.84003C 475.77 340.04004 475.9 340.28003 475.99 340.56003C 476.08 340.84003 476.12 341.16003 476.12 341.50003C 476.12 341.59003 476.12 341.67004 476.12 341.76004C 476.12 341.84003 476.11 341.92004 476.09 341.98004L476.09 341.98004L472.8 341.98004C 472.83 342.50003 473 342.91003 473.28998 343.22003C 473.57996 343.53003 473.96 343.68002 474.43 343.68002C 474.66 343.68002 474.88 343.64 475.08 343.57004C 475.27997 343.50006 475.47 343.41003 475.65 343.29004L475.65 343.29004L475.94 343.83005C 475.73 343.96005 475.49 344.08005 475.23 344.18005C 474.97003 344.28006 474.65 344.35 474.32 344.35zM472.78 341.4L475.38998 341.4C 475.38998 340.9 475.28 340.53 475.06998 340.27C 474.86 340.00998 474.55997 339.87997 474.17996 339.87997C 474.00995 339.87997 473.83997 339.90997 473.67996 339.97998C 473.51996 340.05 473.37997 340.15 473.24997 340.27997C 473.11996 340.40997 473.01996 340.56998 472.92996 340.75998C 472.86 340.95 472.81 341.16 472.78 341.4z" stroke="none" fill="#1D1D1B" fill-rule="nonzero" />
            <path d="M477.37 344.23L477.37 339.35L478.05 339.35L478.12 340.23L478.15 340.23C 478.32 339.92 478.52 339.68002 478.75998 339.5C 478.99997 339.31998 479.25998 339.23 479.53998 339.23C 479.72998 339.23 479.90997 339.26 480.05997 339.33002L480.05997 339.33002L479.89996 340.05002C 479.81998 340.02002 479.74997 340.00003 479.67996 339.99002C 479.60995 339.98 479.52997 339.97003 479.42996 339.97003C 479.21997 339.97003 479.00995 340.05002 478.77997 340.22003C 478.55997 340.39005 478.35995 340.68002 478.18997 341.09003L478.18997 341.09003L478.18997 344.22003L477.37 344.22003L477.37 344.23z" stroke="none" fill="#1D1D1B" fill-rule="nonzero" />
            <path d="M482.26 344.23L480.5 339.35L481.35 339.35L482.27002 342.12C 482.34003 342.36 482.42 342.6 482.50003 342.84C 482.58002 343.08 482.65002 343.32 482.73004 343.55L482.73004 343.55L482.77005 343.55C 482.84006 343.31998 482.92004 343.08 482.99005 342.84C 483.06006 342.6 483.14005 342.36 483.21005 342.12L483.21005 342.12L484.13007 339.35L484.94006 339.35L483.21005 344.23L482.26 344.23z" stroke="none" fill="#1D1D1B" fill-rule="nonzero" />
            <path d="M486.36 338.35C 486.19998 338.35 486.06 338.30002 485.94998 338.2C 485.83997 338.1 485.77997 337.97 485.77997 337.82C 485.77997 337.66 485.82996 337.53 485.94998 337.43C 486.07 337.33 486.19998 337.28 486.36 337.28C 486.52 337.28 486.65997 337.33 486.77 337.43C 486.88 337.53 486.94 337.66 486.94 337.82C 486.94 337.97 486.89 338.1 486.77 338.2C 486.64996 338.30002 486.52 338.35 486.36 338.35zM485.94 344.23L485.94 339.35L486.76 339.35L486.76 344.23L485.94 344.23z" stroke="none" fill="#1D1D1B" fill-rule="nonzero" />
            <path d="M490.29 344.35C 489.97 344.35 489.67 344.29 489.39 344.18C 489.11002 344.07 488.87003 343.9 488.66 343.68C 488.46 343.46 488.29 343.19 488.18 342.88C 488.06 342.56 488.00998 342.2 488.00998 341.80002C 488.00998 341.39 488.06998 341.03003 488.19998 340.71002C 488.33 340.39 488.49997 340.12003 488.71 339.90002C 488.92 339.68002 489.16998 339.51 489.46 339.40002C 489.74 339.29004 490.03998 339.23 490.36 339.23C 490.68 339.23 490.96 339.29 491.18 339.40002C 491.41 339.51 491.61 339.65002 491.78 339.80002L491.78 339.80002L491.36 340.34003C 491.21997 340.21002 491.06998 340.11002 490.90997 340.03003C 490.74997 339.95004 490.58 339.91003 490.37997 339.91003C 490.15997 339.91003 489.95996 339.95004 489.77 340.04004C 489.58 340.13004 489.41998 340.26004 489.28998 340.43005C 489.15997 340.60007 489.05 340.80005 488.96997 341.03006C 488.88998 341.26007 488.84998 341.52005 488.84998 341.80005C 488.84998 342.08005 488.88998 342.34006 488.95996 342.56006C 489.02994 342.78006 489.13995 342.98007 489.26996 343.15005C 489.39996 343.31006 489.55997 343.44006 489.74997 343.53006C 489.93997 343.62006 490.13998 343.67007 490.35995 343.67007C 490.58997 343.67007 490.79996 343.6201 490.98996 343.52008C 491.17996 343.42007 491.34995 343.3101 491.50995 343.17007L491.50995 343.17007L491.86993 343.72006C 491.64993 343.91006 491.40994 344.07007 491.13992 344.18005C 490.86 344.3 490.58 344.35 490.29 344.35z" stroke="none" fill="#1D1D1B" fill-rule="nonzero" />
            <path d="M494.9 344.35C 494.57 344.35 494.27 344.29 493.97998 344.17C 493.68997 344.05002 493.44998 343.89 493.24 343.67C 493.03 343.45 492.86 343.19 492.74 342.87003C 492.62 342.55005 492.56 342.2 492.56 341.80002C 492.56 341.40002 492.62 341.04 492.75 340.72003C 492.88 340.40005 493.04 340.13004 493.24 339.91003C 493.44 339.69003 493.68 339.52002 493.94 339.40002C 494.2 339.28003 494.47 339.22003 494.75 339.22003C 495.06 339.22003 495.33 339.27002 495.58 339.38004C 495.81998 339.49002 496.03 339.64005 496.18997 339.84003C 496.34998 340.04004 496.47998 340.28003 496.56998 340.56003C 496.65997 340.84003 496.69998 341.16003 496.69998 341.50003C 496.69998 341.59003 496.69998 341.67004 496.69998 341.76004C 496.69998 341.85004 496.68997 341.92004 496.66998 341.98004L496.66998 341.98004L493.37997 341.98004C 493.40997 342.50003 493.58 342.91003 493.86996 343.22003C 494.15994 343.53003 494.53998 343.68002 495.00998 343.68002C 495.24 343.68002 495.46 343.64 495.65997 343.57004C 495.85995 343.50006 496.05 343.41003 496.22998 343.29004L496.22998 343.29004L496.52 343.83005C 496.31 343.96005 496.06998 344.08005 495.81 344.18005C 495.55002 344.28006 495.24 344.35 494.9 344.35zM493.37 341.4L495.97998 341.4C 495.97998 340.9 495.87 340.53 495.65997 340.27C 495.44998 340.00998 495.14996 339.87997 494.76996 339.87997C 494.59995 339.87997 494.42996 339.90997 494.26996 339.97998C 494.10995 340.05 493.96997 340.15 493.83997 340.27997C 493.70996 340.40997 493.60995 340.56998 493.51996 340.75998C 493.45 340.95 493.39 341.16 493.37 341.4z" stroke="none" fill="#1D1D1B" fill-rule="nonzero" />
		</g>
		<g>
            <path d="M487.56 250.21C 487.56 287 457.74 316.82 420.95 316.82C 384.16 316.82 354.33002 287 354.33002 250.21C 354.33002 213.42001 384.15002 183.6 420.95 183.6C 457.74 183.6 487.56 213.42 487.56 250.21" stroke="none" fill="#0069B4" fill-rule="nonzero" />
			<g>
                <path d="M394.33 250.2C 394.33 252 393.94998 253.59999 393.18 254.98999C 392.41 256.38 391.36 257.47998 390.03 258.28C 388.7 259.08 387.16 259.47 385.42 259.47L385.42 259.47L381.42 259.47L381.42 240.95L385.42 240.95C 387.16 240.95 388.69 241.34 390.03 242.12999C 391.36 242.91998 392.41 243.99998 393.18 245.38998C 393.95 246.77 394.33 248.38 394.33 250.2M397.43 250.2C 397.43 248.42 397.13998 246.8 396.56 245.33C 395.98 243.86 395.15 242.59 394.08 241.5C 393 240.41 391.74 239.58 390.28 238.99C 388.82 238.40001 387.2 238.1 385.43 238.1L385.43 238.1L379.82 238.1C 379.37 238.1 378.98 238.25 378.67 238.55C 378.36002 238.85 378.21002 239.24 378.21002 239.71L378.21002 239.71L378.21002 260.71002C 378.21002 261.16003 378.36002 261.55002 378.67 261.86002C 378.98 262.17 379.36002 262.33002 379.82 262.33002L379.82 262.33002L385.43 262.33002C 387.21 262.33002 388.83 262.03003 390.28 261.44C 391.74 260.85 393 260.01 394.08 258.93C 395.15997 257.84 395.97998 256.56 396.56 255.07999C 397.14 253.6 397.43 251.97 397.43 250.2" stroke="none" fill="#FFFFFF" fill-rule="nonzero" />
                <path d="M437.22 254.32L428.27 254.32L432.78 243.29001L437.22 254.32zM442.99 260.06L434.24 239.19C 433.97 238.47 433.46 238.1 432.72 238.1C 432.02 238.1 431.51 238.46 431.2 239.19L431.2 239.19L422.49 260C 422.24 260.56 422.27 261.09 422.58 261.58C 422.88998 262.08 423.34 262.33 423.90997 262.33C 424.19998 262.33 424.47998 262.25 424.75998 262.08C 425.03998 261.90997 425.24997 261.66998 425.4 261.33L425.4 261.33L427.18 256.99L438.28998 256.99L440.03998 261.33C 440.15997 261.63998 440.36996 261.87997 440.64996 262.06C 440.92996 262.24 441.21997 262.32 441.52997 262.32C 442.12997 262.32 442.57996 262.09 442.87997 261.62C 443.18 261.16 443.22 260.64 442.99 260.06" stroke="none" fill="#FFFFFF" fill-rule="nonzero" />
                <path d="M414.05 254.32L405.09998 254.32L409.61 243.29001L414.05 254.32zM419.81 260.06L411.06 239.19C 410.79 238.47 410.28 238.1 409.54 238.1C 408.84 238.1 408.33002 238.46 408.02002 239.19L408.02002 239.19L399.31 260C 399.06 260.56 399.09 261.09 399.4 261.58C 399.71 262.08 400.16 262.33 400.72998 262.33C 401.02 262.33 401.3 262.25 401.58 262.08C 401.86 261.90997 402.06998 261.66998 402.22 261.33L402.22 261.33L404 256.99L415.11 256.99L416.86 261.33C 416.97998 261.63998 417.18997 261.87997 417.46997 262.06C 417.74997 262.24 418.03998 262.32 418.34998 262.32C 418.94998 262.32 419.39996 262.09 419.69998 261.62C 420 261.16 420.04 260.64 419.81 260.06" stroke="none" fill="#FFFFFF" fill-rule="nonzero" />
                <path d="M462.79 250.2C 462.79 252 462.41 253.59999 461.64 254.98999C 460.87003 256.38 459.82 257.47998 458.49002 258.28C 457.16003 259.08 455.62003 259.47 453.88004 259.47L453.88004 259.47L449.88004 259.47L449.88004 240.95L453.88004 240.95C 455.62003 240.95 457.15002 241.34 458.49002 242.12999C 459.82 242.91998 460.87003 243.99998 461.64 245.38998C 462.41 246.77 462.79 248.38 462.79 250.2M465.89 250.2C 465.89 248.42 465.6 246.8 465.02002 245.33C 464.44003 243.86 463.61002 242.59 462.54 241.5C 461.46002 240.41 460.2 239.58 458.74002 238.99C 457.28003 238.40001 455.66003 238.1 453.89 238.1L453.89 238.1L448.28003 238.1C 447.83002 238.1 447.44003 238.25 447.13004 238.55C 446.82004 238.85 446.67004 239.24 446.67004 239.71L446.67004 239.71L446.67004 260.71002C 446.67004 261.16003 446.82004 261.55002 447.13004 261.86002C 447.44003 262.17 447.82004 262.33002 448.28003 262.33002L448.28003 262.33002L453.89 262.33002C 455.67 262.33002 457.29 262.03003 458.74002 261.44C 460.2 260.85 461.46002 260.01 462.54 258.93C 463.62 257.84 464.44 256.56 465.02002 255.07999C 465.6 253.6 465.89 251.97 465.89 250.2" stroke="none" fill="#FFFFFF" fill-rule="nonzero" />
			</g>
		</g>
	</g>
</g>
</svg>