<?xml version="1.0" standalone="no"?>
<!DOCTYPE svg PUBLIC "-//W3C//DTD SVG 20010904//EN"
 "http://www.w3.org/TR/2001/REC-SVG-20010904/DTD/svg10.dtd">
<svg version="1.0" xmlns="http://www.w3.org/2000/svg"
 width="980.000000pt" height="551.000000pt" viewBox="0 0 980.000000 551.000000"
 preserveAspectRatio="xMidYMid meet">

<g transform="translate(0.000000,551.000000) scale(0.100000,-0.100000)"
fill="#000000" stroke="none">
<path d="M4705 5370 c-230 -35 -404 -90 -620 -195 -238 -116 -402 -233 -580
-410 -174 -175 -292 -341 -405 -570 -152 -308 -220 -602 -220 -949 0 -754 396
-1448 1050 -1838 670 -400 1517 -397 2198 6 289 171 566 449 738 738 142 239
238 507 281 783 24 154 24 479 0 633 -97 615 -436 1139 -957 1482 -259 170
-595 290 -920 330 -134 16 -427 11 -565 -10z m-651 -1764 c153 -75 236 -241
209 -417 -21 -136 -94 -236 -213 -293 -63 -30 -70 -31 -221 -34 -154 -4 -157
-3 -173 19 -14 21 -16 67 -16 376 0 314 2 353 17 368 14 14 38 16 177 13 154
-3 163 -4 220 -32z m649 7 c45 -88 287 -683 287 -704 0 -33 -17 -49 -52 -49
-32 0 -45 18 -79 108 l-24 62 -178 0 -178 0 -19 -47 c-39 -96 -54 -118 -81
-121 -30 -4 -59 20 -59 49 0 26 288 712 303 721 28 18 66 8 80 -19z m739 10
c20 -23 298 -689 298 -713 0 -28 -29 -51 -59 -48 -27 3 -42 25 -81 121 l-19
47 -178 0 -178 0 -30 -77 c-25 -63 -36 -80 -58 -87 -36 -13 -61 2 -65 38 -2
18 43 138 129 344 168 404 162 392 198 392 15 0 35 -8 43 -17z m820 -16 c113
-56 187 -159 208 -289 28 -183 -58 -351 -218 -426 -53 -25 -69 -27 -210 -30
-135 -3 -156 -2 -173 14 -18 16 -19 34 -19 371 0 235 4 361 11 374 10 20 19
20 177 17 159 -3 170 -5 224 -31z"/>
<path d="M3750 3256 l0 -296 93 0 c111 0 153 11 208 53 127 98 147 317 40 439
-57 64 -122 90 -243 96 l-98 5 0 -297z"/>
<path d="M4592 3307 c-33 -84 -64 -160 -68 -169 -6 -17 5 -18 134 -18 l141 0
-68 165 c-37 90 -69 167 -72 169 -3 3 -33 -63 -67 -147z"/>
<path d="M5337 3298 c-37 -90 -67 -166 -67 -170 0 -5 61 -8 135 -8 74 0 135 2
135 5 0 6 -120 307 -129 323 -5 8 -33 -49 -74 -150z"/>
<path d="M5960 3256 l0 -296 93 0 c115 0 172 18 228 72 64 62 84 116 84 223
-1 72 -5 98 -22 131 -59 112 -134 155 -284 162 l-99 5 0 -297z"/>
<path d="M3120 726 c0 -95 3 -116 15 -116 10 0 15 16 17 61 2 45 8 65 20 72
30 19 48 -8 48 -74 0 -33 4 -59 10 -59 14 0 13 133 -2 148 -15 15 -54 16 -63
2 -13 -21 -22 -8 -21 31 1 25 -4 44 -11 46 -10 4 -13 -23 -13 -111z"/>
<path d="M3820 725 c0 -70 4 -115 10 -115 6 0 10 8 10 18 0 11 8 27 19 36 18
16 19 15 39 -19 12 -19 26 -35 32 -35 16 0 12 12 -15 53 l-26 37 27 35 c18 25
22 35 12 35 -8 0 -27 -18 -44 -40 -16 -22 -32 -40 -36 -40 -5 0 -8 34 -8 75 0
43 -4 75 -10 75 -6 0 -10 -45 -10 -115z"/>
<path d="M4244 825 c-4 -9 -4 -27 -1 -41 4 -23 2 -25 -24 -19 -62 14 -103 -52
-75 -119 15 -36 16 -36 71 -34 l55 2 0 113 c0 71 -4 113 -10 113 -6 0 -13 -7
-16 -15z m-15 -85 c14 -7 17 -18 14 -47 -5 -56 -10 -63 -37 -63 -43 0 -60 56
-30 98 17 24 27 27 53 12z"/>
<path d="M5130 725 c0 -70 4 -115 10 -115 6 0 10 24 10 53 0 40 5 58 18 70 39
35 62 8 62 -72 0 -28 5 -51 10 -51 14 0 13 133 -2 148 -15 15 -54 16 -63 2
-14 -23 -25 -7 -25 35 0 25 -4 45 -10 45 -6 0 -10 -45 -10 -115z"/>
<path d="M6880 725 c0 -94 3 -115 15 -115 10 0 15 16 17 61 2 45 8 65 20 72
30 19 48 -8 48 -74 0 -33 4 -59 10 -59 14 0 13 133 -2 148 -15 15 -54 16 -63
2 -14 -23 -25 -7 -25 35 0 25 -4 45 -10 45 -6 0 -10 -45 -10 -115z"/>
<path d="M7157 833 c-4 -3 -7 -22 -7 -40 0 -30 -3 -33 -20 -28 -50 16 -97 -39
-86 -100 9 -45 25 -55 85 -53 l51 2 0 113 c0 103 -5 125 -23 106z m-19 -92 c9
-5 12 -25 10 -57 -3 -43 -6 -49 -27 -52 -46 -7 -69 62 -34 100 18 20 31 22 51
9z"/>
<path d="M4757 824 c-9 -10 2 -24 19 -24 8 0 14 7 14 15 0 15 -21 21 -33 9z"/>
<path d="M7230 815 c0 -10 7 -15 18 -13 21 4 19 22 -2 26 -10 2 -16 -3 -16
-13z"/>
<path d="M2171 715 l1 -105 48 0 c37 0 56 6 77 24 25 21 28 31 28 81 0 50 -3
60 -28 81 -22 18 -40 24 -78 24 l-49 0 1 -105z m104 60 c49 -48 18 -145 -46
-145 l-29 0 0 85 c0 84 0 85 25 85 14 0 37 -11 50 -25z"/>
<path d="M3652 722 c-36 -109 -36 -112 -21 -112 5 0 15 14 20 30 10 26 16 30
49 30 33 0 39 -4 49 -30 5 -16 16 -30 24 -30 10 0 4 27 -22 105 -25 72 -41
105 -51 105 -11 0 -26 -30 -48 -98z m66 19 c16 -52 16 -51 -18 -51 -16 0 -30
3 -30 6 0 17 24 84 30 84 4 0 12 -17 18 -39z"/>
<path d="M5657 716 c-26 -77 -32 -106 -22 -106 7 0 18 14 24 30 9 27 14 30 51
30 37 0 41 -3 47 -30 3 -16 12 -30 19 -30 20 0 17 13 -20 115 -44 124 -55 123
-99 -9z m74 -1 c3 -15 -2 -21 -23 -23 -32 -4 -33 3 -16 61 l12 40 12 -29 c7
-16 14 -38 15 -49z"/>
<path d="M2720 786 c0 -13 -6 -27 -12 -30 -10 -5 -10 -7 0 -12 7 -3 12 -26 12
-57 0 -69 11 -83 58 -78 20 2 13 21 -8 21 -18 0 -20 7 -20 55 0 48 2 55 20 55
11 0 20 5 20 11 0 6 -9 13 -20 16 -11 3 -20 14 -20 24 0 11 -7 19 -15 19 -9 0
-15 -9 -15 -24z"/>
<path d="M6144 788 c-4 -13 -12 -27 -18 -31 -8 -6 -8 -10 2 -14 7 -3 12 -25
12 -58 0 -43 4 -57 21 -69 21 -14 49 -12 49 5 0 5 -9 9 -20 9 -18 0 -20 7 -20
55 0 48 2 55 20 55 11 0 20 7 20 15 0 8 -9 15 -20 15 -13 0 -20 7 -20 20 0 27
-17 25 -26 -2z"/>
<path d="M7800 792 c0 -10 -6 -24 -12 -30 -10 -10 -10 -15 -1 -20 7 -4 13 -34
15 -67 3 -60 3 -60 36 -63 18 -2 32 1 32 7 0 6 -9 11 -19 11 -23 0 -31 19 -31
70 0 32 4 39 23 42 27 4 26 22 -3 26 -12 2 -20 11 -20 23 0 10 -4 19 -10 19
-5 0 -10 -8 -10 -18z"/>
<path d="M2393 755 c-45 -31 -36 -129 12 -141 32 -8 81 -1 77 11 -1 5 -16 8
-33 7 -32 -4 -59 12 -59 34 0 10 14 14 50 14 48 0 50 1 50 28 0 53 -53 78 -97
47z m65 -17 c24 -24 13 -38 -28 -38 -43 0 -55 20 -22 39 23 14 36 13 50 -1z"/>
<path d="M2537 763 c-7 -11 -1 -128 6 -140 11 -18 45 -21 71 -7 14 7 26 9 26
3 0 -5 5 -9 10 -9 6 0 10 33 10 80 0 66 -2 78 -15 74 -11 -5 -15 -22 -15 -65
0 -54 -2 -59 -24 -65 -39 -9 -46 2 -46 72 0 56 -9 79 -23 57z"/>
<path d="M2835 750 c-23 -25 -14 -46 29 -67 62 -29 51 -63 -15 -49 -22 4 -29
2 -27 -7 6 -16 76 -21 94 -6 25 20 12 52 -29 74 -46 25 -46 51 1 49 34 -2 43
10 16 20 -28 11 -51 6 -69 -14z"/>
<path d="M2985 746 c-29 -29 -33 -80 -9 -114 13 -19 24 -22 57 -20 52 4 62 26
10 24 -46 -1 -67 29 -51 74 11 32 31 43 61 34 14 -4 18 -2 15 7 -8 25 -56 22
-83 -5z"/>
<path d="M3310 750 c-29 -29 -30 -92 -3 -122 18 -20 87 -25 98 -8 4 6 -10 10
-34 10 -30 0 -43 5 -51 19 -15 30 -14 31 45 31 59 0 67 9 44 53 -23 43 -66 50
-99 17z m68 -12 c24 -24 13 -38 -28 -38 -44 0 -48 5 -23 32 19 21 34 23 51 6z"/>
<path d="M3460 690 c0 -47 4 -80 10 -80 6 0 10 23 10 50 0 37 5 55 20 70 12
12 25 18 30 15 6 -4 10 1 10 9 0 21 -19 20 -42 -1 -17 -15 -18 -15 -18 0 0 10
-4 17 -10 17 -6 0 -10 -33 -10 -80z"/>
<path d="M3998 759 c-29 -17 -20 -28 12 -16 22 8 33 8 41 0 16 -16 4 -43 -18
-43 -30 0 -63 -29 -63 -56 0 -29 34 -46 67 -33 13 5 30 6 38 3 22 -9 22 118
-1 140 -18 18 -51 20 -76 5z m72 -87 c0 -24 -19 -42 -46 -42 -34 0 -41 21 -14
42 29 23 60 24 60 0z"/>
<path d="M4340 750 c-29 -29 -30 -92 -3 -122 18 -20 87 -25 98 -8 4 6 -10 10
-34 10 -30 0 -43 5 -51 19 -15 30 -14 31 45 31 59 0 67 9 44 53 -23 43 -66 50
-99 17z m68 -12 c24 -24 13 -38 -28 -38 -44 0 -48 5 -23 32 19 21 34 23 51 6z"/>
<path d="M4490 690 c0 -63 3 -80 15 -80 10 0 15 16 17 61 2 45 8 65 20 73 27
16 37 -2 39 -71 2 -45 6 -63 16 -63 9 0 13 17 13 60 0 50 3 61 21 70 34 19 49
-4 49 -71 0 -46 3 -59 15 -59 11 0 15 12 15 49 0 93 -29 128 -81 99 -23 -14
-28 -14 -33 -2 -7 17 -47 18 -65 2 -11 -10 -14 -10 -18 0 -13 34 -23 4 -23
-68z"/>
<path d="M4760 690 c0 -47 4 -80 10 -80 6 0 10 33 10 80 0 47 -4 80 -10 80 -6
0 -10 -33 -10 -80z"/>
<path d="M4846 754 c-28 -28 -17 -52 37 -79 12 -6 23 -19 25 -29 4 -17 -1 -18
-38 -13 -29 4 -40 2 -37 -6 5 -17 75 -21 93 -6 25 20 12 52 -29 74 -46 25 -46
51 1 47 33 -2 44 11 16 22 -27 10 -52 7 -68 -10z"/>
<path d="M4996 749 c-21 -16 -26 -29 -26 -63 0 -55 24 -79 74 -74 20 2 35 7
34 13 -2 5 -17 8 -35 6 -23 -2 -34 3 -42 18 -26 49 7 107 54 95 27 -7 35 10 9
20 -26 10 -40 7 -68 -15z"/>
<path d="M5332 763 c-16 -6 -42 -56 -42 -81 0 -11 10 -31 21 -46 18 -23 28
-27 63 -24 22 2 40 7 38 13 -1 5 -16 8 -33 7 -32 -4 -59 12 -59 34 0 9 17 14
53 16 49 3 52 4 49 28 -7 48 -46 71 -90 53z m56 -25 c24 -24 13 -38 -28 -38
-43 0 -49 9 -24 34 19 19 36 20 52 4z"/>
<path d="M5470 693 c0 -49 4 -83 10 -83 6 0 10 25 10 55 0 52 2 57 30 73 16 9
30 20 30 25 0 12 -28 8 -42 -7 -11 -11 -15 -11 -25 3 -10 13 -12 1 -13 -66z"/>
<path d="M5820 703 c0 -40 5 -74 12 -81 15 -15 61 -15 76 0 9 9 12 9 12 0 0
-7 5 -12 10 -12 6 0 10 33 10 80 0 47 -4 80 -10 80 -6 0 -10 -26 -10 -59 0
-62 -14 -86 -47 -79 -14 3 -19 16 -23 67 -3 39 -10 66 -17 69 -10 3 -13 -15
-13 -65z"/>
<path d="M6008 759 c-10 -5 -18 -21 -18 -34 0 -19 9 -29 37 -42 21 -10 39 -27
41 -37 4 -17 -1 -18 -37 -13 -23 3 -43 1 -46 -3 -7 -11 20 -20 60 -20 60 0 70
68 13 86 -38 11 -50 25 -37 41 8 9 22 12 41 8 30 -7 40 8 12 19 -22 9 -46 7
-66 -5z"/>
<path d="M6268 759 c-30 -17 -20 -29 14 -17 27 9 33 8 45 -8 12 -17 11 -20 -9
-27 -52 -19 -73 -34 -76 -52 -4 -31 13 -48 44 -46 16 1 39 2 52 3 20 0 22 5
22 63 0 44 -5 68 -16 79 -18 18 -51 20 -76 5z m72 -87 c0 -25 -19 -42 -47 -42
-28 0 -32 34 -5 49 27 16 52 13 52 -7z"/>
<path d="M6410 703 c0 -40 5 -74 12 -81 15 -15 61 -15 76 0 9 9 12 9 12 0 0
-7 7 -12 15 -12 12 0 15 14 13 77 -2 50 -7 78 -15 81 -10 3 -13 -13 -13 -56 0
-63 -14 -87 -47 -80 -14 3 -19 16 -23 67 -3 39 -10 66 -17 69 -10 3 -13 -15
-13 -65z"/>
<path d="M6596 754 c-9 -8 -16 -21 -16 -28 0 -17 29 -42 58 -50 13 -5 22 -15
22 -28 0 -18 -4 -20 -41 -15 -45 6 -51 -12 -7 -24 37 -10 73 11 73 41 0 19
-10 30 -38 45 -46 25 -46 51 1 47 33 -2 44 11 16 22 -27 10 -52 7 -68 -10z"/>
<path d="M6745 746 c-29 -29 -33 -80 -9 -114 13 -19 24 -22 57 -20 47 3 48 21
2 22 -39 1 -62 43 -44 78 16 32 30 39 57 33 17 -4 23 -2 20 7 -8 24 -56 21
-83 -6z"/>
<path d="M7240 690 c0 -47 4 -80 10 -80 6 0 10 33 10 80 0 47 -4 80 -10 80 -6
0 -10 -33 -10 -80z"/>
<path d="M7332 747 c-28 -30 -30 -97 -4 -120 20 -19 87 -23 97 -7 4 6 -10 10
-34 10 -30 0 -43 5 -51 19 -15 30 -14 31 46 31 l57 0 -7 33 c-11 58 -65 76
-104 34z m64 -5 c6 -4 13 -15 17 -24 5 -16 0 -18 -38 -18 -49 0 -53 4 -28 32
17 19 31 22 49 10z"/>
<path d="M7480 690 c0 -64 3 -80 15 -80 12 0 15 13 15 60 0 50 3 61 21 70 34
19 49 -4 49 -71 0 -46 3 -59 15 -59 12 0 14 12 11 66 -3 36 -10 72 -16 80 -15
17 -51 18 -69 2 -11 -10 -14 -10 -18 0 -13 34 -23 4 -23 -68z"/>
<path d="M7662 758 c-25 -25 -14 -57 29 -78 50 -26 46 -45 -10 -44 -46 1 -51
-16 -9 -27 37 -10 72 11 76 43 3 23 -3 30 -35 45 -48 23 -51 49 -5 47 34 -2
43 10 16 20 -25 9 -49 7 -62 -6z"/>
<path d="M4320 412 c0 -37 -1 -38 -34 -34 -25 3 -40 -2 -55 -17 -28 -28 -29
-93 -1 -121 21 -21 65 -27 75 -10 5 8 11 8 19 1 22 -18 26 -1 26 111 0 89 -3
108 -15 108 -11 0 -15 -11 -15 -38z m-5 -106 c0 -36 -5 -52 -17 -60 -28 -17
-52 4 -56 48 -4 46 13 68 47 64 24 -3 26 -7 26 -52z"/>
<path d="M4835 440 c-7 -12 2 -30 16 -30 5 0 9 9 9 20 0 21 -15 27 -25 10z"/>
<path d="M5600 335 c0 -70 4 -115 10 -115 6 0 10 26 10 59 0 62 14 86 47 79
14 -3 19 -16 23 -67 3 -39 10 -66 18 -69 16 -5 17 129 0 146 -7 7 -24 12 -38
12 -14 0 -31 -5 -38 -12 -9 -9 -12 -2 -12 35 0 26 -4 47 -10 47 -6 0 -10 -45
-10 -115z"/>
<path d="M7125 440 c-4 -6 -3 -16 3 -22 6 -6 12 -6 17 2 4 6 3 16 -3 22 -6 6
-12 6 -17 -2z"/>
<path d="M2611 426 c-49 -27 -65 -99 -36 -156 18 -34 43 -50 80 -50 49 0 65
16 65 65 0 45 0 45 -35 45 -19 0 -35 -4 -35 -10 0 -5 11 -10 25 -10 20 0 25
-5 25 -25 0 -23 -24 -45 -50 -45 -6 0 -22 11 -35 25 -27 26 -34 80 -14 116 14
27 55 42 80 29 11 -6 24 -8 31 -4 13 9 -29 33 -57 33 -11 0 -31 -6 -44 -13z"/>
<path d="M3775 430 c-10 -16 -65 -182 -65 -197 0 -26 19 -12 30 22 11 32 15
35 50 35 36 0 40 -3 48 -32 9 -35 32 -51 31 -21 -1 31 -63 196 -76 200 -6 2
-14 -1 -18 -7z m28 -57 c3 -16 9 -36 12 -45 6 -15 2 -18 -25 -18 -25 0 -30 3
-26 18 3 9 8 29 12 45 3 15 10 27 14 27 4 0 10 -12 13 -27z"/>
<path d="M5134 425 c-3 -6 -3 -54 -2 -106 l3 -94 63 -3 c51 -2 62 0 62 13 0
11 -12 15 -50 15 l-50 0 0 35 c0 34 1 35 40 35 29 0 40 4 40 15 0 11 -11 15
-40 15 -38 0 -40 2 -40 30 0 29 2 30 44 30 25 0 48 5 51 10 7 12 3 13 -66 15
-30 0 -53 -4 -55 -10z"/>
<path d="M6520 420 c-36 -36 -19 -73 46 -101 36 -15 45 -23 42 -40 -5 -36 -32
-46 -72 -26 -30 14 -36 14 -36 2 0 -36 88 -47 120 -15 38 38 24 73 -42 104
-23 12 -44 29 -46 38 -5 25 31 40 64 28 33 -13 46 -3 20 16 -28 20 -73 17 -96
-6z"/>
<path d="M2786 364 c-38 -38 -30 -107 15 -133 27 -15 79 -9 79 9 0 6 -11 8
-24 4 -31 -8 -66 11 -66 36 0 17 7 20 50 20 46 0 50 2 50 24 0 50 -69 76 -104
40z m74 -19 c17 -21 3 -35 -36 -35 -35 0 -44 16 -22 38 16 16 43 15 58 -3z"/>
<path d="M2932 303 c2 -50 7 -78 16 -81 9 -3 12 13 12 55 0 61 11 83 42 83 10
0 18 5 18 10 0 14 -33 13 -48 -2 -9 -9 -12 -9 -12 0 0 7 -7 12 -15 12 -13 0
-15 -13 -13 -77z"/>
<path d="M3050 299 c0 -60 3 -80 13 -77 7 3 14 30 17 69 5 61 6 64 32 67 27 3
27 3 30 -64 4 -90 26 -99 30 -13 3 65 19 88 52 76 13 -5 16 -21 16 -73 0 -48
3 -65 13 -62 16 6 21 96 8 131 -8 21 -17 27 -39 27 -15 0 -33 -5 -40 -12 -9
-9 -15 -9 -24 0 -7 7 -24 12 -38 12 -14 0 -31 -5 -38 -12 -9 -9 -12 -9 -12 0
0 7 -4 12 -10 12 -6 0 -10 -34 -10 -81z"/>
<path d="M3333 373 c-25 -10 -12 -20 24 -19 27 1 38 -3 41 -15 2 -12 -7 -18
-31 -23 -41 -8 -60 -27 -55 -57 5 -33 31 -46 68 -32 16 6 30 7 30 2 0 -5 5 -9
10 -9 13 0 13 116 0 141 -10 18 -56 25 -87 12z m77 -93 c0 -29 -46 -49 -66
-28 -14 14 -14 17 1 32 24 24 65 21 65 -4z"/>
<path d="M3482 303 c2 -50 7 -78 16 -81 9 -3 12 13 12 56 0 63 14 87 47 80 14
-3 19 -16 23 -67 3 -39 10 -66 18 -69 15 -5 17 110 2 139 -12 22 -59 26 -78 7
-9 -9 -12 -9 -12 0 0 7 -7 12 -15 12 -13 0 -15 -13 -13 -77z"/>
<path d="M3917 362 c-24 -27 -23 -96 3 -122 24 -24 59 -26 86 -5 18 14 17 15
-17 9 -31 -5 -39 -2 -53 17 -34 49 -3 108 50 95 19 -5 25 -3 22 6 -7 22 -72
22 -91 0z"/>
<path d="M4067 373 c-15 -14 -5 -20 30 -19 50 1 59 -28 12 -38 -41 -8 -59 -23
-59 -50 0 -41 49 -62 79 -33 11 10 14 10 18 0 12 -32 23 -8 23 48 0 81 -11 99
-59 99 -21 0 -41 -3 -44 -7z m63 -119 c-16 -18 -49 -18 -56 1 -8 20 12 43 39
47 26 4 35 -25 17 -48z"/>
<path d="M4416 364 c-57 -56 -7 -159 67 -140 36 9 35 27 -1 20 -31 -6 -62 15
-62 42 0 10 13 14 50 14 46 0 50 2 50 24 0 50 -69 76 -104 40z m78 -20 c11
-29 6 -34 -34 -34 -26 0 -40 5 -40 13 0 34 62 52 74 21z"/>
<path d="M4562 303 c4 -97 26 -114 30 -22 3 65 19 88 52 76 13 -5 16 -21 16
-73 0 -48 3 -65 13 -62 7 3 13 28 15 66 2 51 6 62 23 67 30 10 38 -3 41 -69 2
-36 8 -61 16 -64 16 -5 17 129 0 146 -15 15 -60 16 -75 1 -8 -8 -13 -8 -17 0
-9 15 -59 14 -74 -1 -9 -9 -12 -9 -12 0 0 7 -7 12 -15 12 -13 0 -15 -13 -13
-77z"/>
<path d="M4832 303 c2 -50 7 -78 16 -81 9 -3 12 17 12 77 0 66 -3 81 -15 81
-13 0 -15 -13 -13 -77z"/>
<path d="M4928 363 c-38 -42 -30 -114 16 -134 32 -15 76 -4 76 18 0 13 -3 14
-12 5 -45 -45 -103 40 -65 93 11 14 21 17 46 12 24 -5 31 -3 29 6 -7 20 -72
20 -90 0z"/>
<path d="M5290 374 c0 -3 10 -20 22 -36 23 -33 23 -29 -20 -95 -12 -19 -12
-23 0 -23 7 0 22 14 32 32 l19 31 28 -34 c35 -43 47 -33 18 16 l-23 38 22 38
c17 29 19 39 9 39 -7 0 -20 -11 -27 -25 -7 -14 -17 -25 -22 -25 -5 0 -14 11
-20 25 -10 22 -38 36 -38 19z"/>
<path d="M5456 361 c-20 -22 -24 -78 -7 -110 6 -11 23 -24 37 -27 30 -8 78 11
68 27 -4 8 -9 8 -17 0 -28 -28 -77 7 -77 55 0 32 34 58 66 50 19 -5 25 -3 22
6 -8 22 -72 22 -92 -1z"/>
<path d="M5783 373 c-27 -10 -11 -22 29 -20 32 2 43 -2 46 -14 2 -12 -7 -18
-31 -23 -43 -8 -71 -37 -62 -65 8 -25 46 -37 73 -22 13 7 22 7 30 -1 8 -8 13
-7 18 6 10 25 -1 113 -16 131 -12 14 -61 19 -87 8z m67 -119 c-16 -18 -49 -18
-56 1 -8 20 12 43 39 47 26 4 35 -25 17 -48z"/>
<path d="M5940 300 c0 -47 4 -80 10 -80 6 0 10 26 10 58 0 62 11 82 46 82 27
0 34 -17 34 -86 0 -30 5 -54 10 -54 11 0 14 118 4 144 -7 19 -64 22 -82 4 -9
-9 -12 -9 -12 0 0 7 -4 12 -10 12 -6 0 -10 -33 -10 -80z"/>
<path d="M6122 368 c-15 -15 -16 -64 -2 -73 8 -5 7 -11 -1 -21 -6 -7 -9 -21
-5 -30 3 -8 1 -25 -5 -37 -10 -17 -8 -24 11 -39 31 -25 74 -23 107 6 38 33 23
59 -38 66 -32 4 -45 10 -47 23 -3 15 0 18 17 12 28 -9 72 34 64 64 -3 12 -1
21 6 21 6 0 11 5 11 10 0 14 -104 12 -118 -2z m78 -37 c0 -24 -25 -45 -45 -37
-18 7 -20 62 -2 69 19 7 47 -12 47 -32z m15 -121 c12 -19 -17 -41 -49 -38 -23
2 -32 9 -34 26 -3 20 1 22 37 22 22 0 43 -5 46 -10z"/>
<path d="M6286 358 c-23 -32 -20 -94 4 -118 20 -20 54 -26 84 -14 29 11 17 23
-18 17 -27 -4 -36 -1 -50 18 -24 35 -21 39 39 39 46 0 55 3 55 18 0 34 -29 62
-65 62 -24 0 -39 -7 -49 -22z m82 -25 c3 -20 -1 -23 -31 -23 -41 0 -49 7 -36
32 15 28 63 21 67 -9z"/>
<path d="M6696 364 c-57 -56 -7 -159 67 -140 36 9 35 27 -1 20 -31 -6 -62 15
-62 42 0 10 13 14 50 14 46 0 50 2 50 24 0 50 -69 76 -104 40z m78 -20 c11
-29 6 -34 -34 -34 -26 0 -40 5 -40 13 0 34 62 52 74 21z"/>
<path d="M6842 303 c2 -50 7 -78 16 -81 8 -2 12 11 12 48 0 61 13 90 40 90 11
0 20 5 20 10 0 14 -33 13 -48 -2 -9 -9 -12 -9 -12 0 0 7 -7 12 -15 12 -13 0
-15 -13 -13 -77z"/>
<path d="M6950 373 c0 -4 12 -41 26 -81 19 -50 32 -72 42 -70 19 4 74 158 56
158 -7 0 -22 -30 -35 -67 l-22 -68 -22 64 c-12 36 -27 67 -33 69 -7 2 -12 0
-12 -5z"/>
<path d="M7120 299 c0 -60 3 -80 13 -77 8 3 13 31 15 81 2 64 0 77 -13 77 -12
0 -15 -15 -15 -81z"/>
<path d="M7211 361 c-28 -28 -28 -94 -1 -121 24 -24 73 -26 91 -3 13 15 11 16
-14 9 -35 -8 -63 7 -71 40 -10 39 18 76 54 72 16 -1 31 2 32 7 2 6 -14 11 -34
13 -27 2 -43 -3 -57 -17z"/>
<path d="M7358 363 c-25 -29 -30 -59 -14 -97 16 -38 48 -53 91 -42 37 9 32 29
-6 21 -22 -5 -36 -2 -50 11 -35 31 -24 44 37 44 l56 0 -7 27 c-4 16 -11 34
-17 40 -15 19 -72 16 -90 -4z m80 -30 c3 -21 -1 -23 -37 -23 -27 0 -41 4 -41
13 0 41 72 50 78 10z"/>
</g>
</svg>
